<svg xmlns="http://www.w3.org/2000/svg" width="43.75" height="50" viewBox="0 0 43.75 50"><g transform="translate(-186 -4000)"><g transform="translate(186 4006.25)"><path d="M207.875,4046.75a21.875,21.875,0,1,1,21.875-21.875A21.9,21.9,0,0,1,207.875,4046.75Zm0-41.667a19.792,19.792,0,1,0,19.792,19.792A19.815,19.815,0,0,0,207.875,4005.083Z" transform="translate(-186 -4003)"/></g><g transform="translate(204.75 4000)"><path d="M200.208,4008.333a1.042,1.042,0,0,1-1.042-1.042v-5.208h-2.083v5.208a1.042,1.042,0,1,1-2.083,0v-6.25a1.042,1.042,0,0,1,1.042-1.042h4.167a1.042,1.042,0,0,1,1.042,1.042v6.25A1.042,1.042,0,0,1,200.208,4008.333Z" transform="translate(-195 -4000)"/></g><g transform="translate(202.667 4000)"><path d="M203.375,4002.083h-8.333a1.042,1.042,0,0,1,0-2.083h8.333a1.042,1.042,0,0,1,0,2.083Z" transform="translate(-194 -4000)"/></g><g transform="translate(206.833 4012.5)"><path d="M203.292,4028.917a1.048,1.048,0,0,1-.737-.3l-6.25-6.25a1.047,1.047,0,0,1-.3-.737v-14.583a1.042,1.042,0,0,1,2.083,0v14.152l5.944,5.944a1.042,1.042,0,0,1-.735,1.779Z" transform="translate(-196 -4006)"/></g><g transform="translate(219.333 4006.251)"><path d="M203.04,4009.25a1.028,1.028,0,0,1-.623-.208,1.041,1.041,0,0,1-.208-1.458l3.125-4.167a1.042,1.042,0,1,1,1.667,1.25l-3.125,4.167A1.039,1.039,0,0,1,203.04,4009.25Z" transform="translate(-202 -4003.001)"/></g></g></svg>