<svg xmlns="http://www.w3.org/2000/svg" width="34.625" height="10" viewBox="0 0 34.625 10">
  <defs>
    <style>
      .cls-1 {
        opacity: 0.5;
      }

      .cls-2 {
        fill: #fff;
      }
    </style>
  </defs>
  <g id="Group_10" data-name="Group 10" class="cls-1" transform="translate(-899.751 -998.126)">
    <path id="Path_22" data-name="Path 22" class="cls-2" d="M1809.289,1308.471h0v-.388h0Z" transform="translate(-887.043 -302.291)"/>
    <ellipse id="Ellipse_1" data-name="Ellipse 1" class="cls-2" cx="1.039" cy="1.053" rx="1.039" ry="1.053" transform="translate(924.259 998.126)"/>
    <path id="Path_23" data-name="Path 23" class="cls-2" d="M902.713,1001.227a1.357,1.357,0,0,1,1.355-1.355v-1.6a2.96,2.96,0,0,0-2.956,2.956v.449h-1.361v1.461h1.361v5.043h1.6v-5.043h1.5v-1.461h-1.5Z" transform="translate(0 -0.141)"/>
    <path id="Path_24" data-name="Path 24" class="cls-2" d="M1911.429,1115.615l-.829.822a2.174,2.174,0,0,1-1.568.728,2.108,2.108,0,0,1,0-4.213,1.992,1.992,0,0,1,1.582.712l1.009-1.009a3.41,3.41,0,0,0-2.591-1.193,3.591,3.591,0,0,0-3.586,3.6c0,.121.006.4.018.515l-1.2,1.2a.084.084,0,0,1-.144-.06v-5.163h-1.489v5.876a1.223,1.223,0,0,0,.731,1.128,1.2,1.2,0,0,0,1.325-.256l1.318-1.318a3.581,3.581,0,0,0,3.03,1.672,3.623,3.623,0,0,0,2.6-1.207l.813-.809Z" transform="translate(-978.074 -110.533)"/>
    <path id="Path_25" data-name="Path 25" class="cls-2" d="M1112.445,1004.457h-1.489v1.8l-1.159,1.2a3.526,3.526,0,0,0-3.454-3.089,3.192,3.192,0,0,0-2,.733v-3.453h-1.486v4.708l-1.134,1.126a3.5,3.5,0,1,0-3.458,4.079,3.172,3.172,0,0,0,2-.712v.625h1.487v-1.965l1.117-1.141a3.633,3.633,0,0,0,3.474,3.193,3.476,3.476,0,0,0,2.6-1.194l2.017-2.086v3.193h1.489v-1.859h0v-.388h0v-1.9c0-.026,0-.052,0-.077a1.409,1.409,0,0,1,1.408-1.364h0v-1.459a2.589,2.589,0,0,0-1.411.441Zm-14.182,5.616a2.11,2.11,0,1,1,1.987-2.107A2.03,2.03,0,0,1,1098.263,1010.073Zm9.554-.648-.008.008h0a2.008,2.008,0,0,1-1.466.64,2.11,2.11,0,1,1,1.988-2.107A2.091,2.091,0,0,1,1107.817,1009.425Z" transform="translate(-190.2 -3.437)"/>
  </g>
</svg>
