<svg xmlns="http://www.w3.org/2000/svg" width="176.509" height="42.338" viewBox="0 0 176.509 42.338"><g transform="translate(0)"><g transform="translate(0)"><path d="M.017,38.765h176.5V0H.017Z" transform="translate(-0.008)" fill="#00529f" fill-rule="evenodd"/><path d="M113.185,70,110,73.849H226.026V70Z" transform="translate(-49.517 -31.511)" fill="#ec1d24" fill-rule="evenodd"/><path d="M0,70v3.849H60.766L63.943,70l-6.395,0Z" transform="translate(0 -31.511)" fill="#ffd41b" fill-rule="evenodd"/><g transform="translate(14.325 9.881)"><path d="M25.5,13.077v3.572a2.811,2.811,0,0,0,.086.86.309.309,0,0,0,.305.219.564.564,0,0,0,.325-.153.685.685,0,0,1,.239-.162.209.209,0,0,1,.163.115.4.4,0,0,1,.076.239q0,.429-.707.993a2.271,2.271,0,0,1-1.422.553.964.964,0,0,1-.726-.286,3.735,3.735,0,0,1-.6-1.184h-.086a7.335,7.335,0,0,1-1.432,1.108,2.5,2.5,0,0,1-1.184.381,1.428,1.428,0,0,1-1.165-.554,2.251,2.251,0,0,1-.439-1.442,2.434,2.434,0,0,1,.505-1.557,6.111,6.111,0,0,1,1.9-1.394l1.566-.859a.341.341,0,0,0,.143-.172.877.877,0,0,0,.048-.324V11.778a1.917,1.917,0,0,0-.144-.859.457.457,0,0,0-.439-.267q-.478,0-1,1.032c-.077.159-.135.278-.172.353-.2.377-.175.663-.475.86a1.763,1.763,0,0,1-1.012.3,1.59,1.59,0,0,1-.719-.144.582.582,0,0,1-.143-.429,2.4,2.4,0,0,1,1.146-1.824,4.011,4.011,0,0,1,2.512-.887,3.249,3.249,0,0,1,2.1.611,2.077,2.077,0,0,1,.754,1.709v.85ZM23.1,14.539a.41.41,0,0,0-.028-.173.094.094,0,0,0-.086-.057.332.332,0,0,0-.086.019.251.251,0,0,0-.086.057l-.554.354a3.26,3.26,0,0,0-.907.85,1.713,1.713,0,0,0-.305.965,1.3,1.3,0,0,0,.248.831.794.794,0,0,0,.649.306.986.986,0,0,0,.86-.421,2.184,2.184,0,0,0,.3-1.241v-1.49Z" transform="translate(-8.553 -4.466)" fill="#fefefe" fill-rule="evenodd"/><path d="M6.615,9.556A3.452,3.452,0,0,1,8.907,10.6a3.305,3.305,0,0,1,.821,2.349,3.429,3.429,0,0,1-.994,2.665,4.17,4.17,0,0,1-2.9.907q-.745,0-1.891-.115A24.621,24.621,0,0,0,1.1,16.346L.455,16.4a.357.357,0,0,1-.277-.114.48.48,0,0,1-.095-.315c0-.191.181-.322.544-.391H.666a.951.951,0,0,0,.592-.277,1.1,1.1,0,0,0,.153-.659v-8.1A3.3,3.3,0,0,0,1.286,5.44C1.21,5.236,1.077,5,.873,5a1.489,1.489,0,0,1-.229-.045,1.779,1.779,0,0,1-.534-.1.94.94,0,0,1-.057-.377c0-.337.4-.286,1.193-.44.813-.1,2.045-.1,3.746-.1a5.644,5.644,0,0,1,3.237.764A2.586,2.586,0,0,1,9.318,6.958a2.334,2.334,0,0,1-.687,1.767,3.449,3.449,0,0,1-2.016.831ZM3.932,14.311a1.7,1.7,0,0,0,.286,1.108,1.176,1.176,0,0,0,.926.325,1.618,1.618,0,0,0,1.385-.726,3.349,3.349,0,0,0,.515-1.959,3.524,3.524,0,0,0-.63-2.215,2.015,2.015,0,0,0-1.7-.821.765.765,0,0,0-.62.21,1.706,1.706,0,0,0-.163.926Zm0-5.673a.9.9,0,0,0,.076.5.718.718,0,0,0,.4.067A2.372,2.372,0,0,0,6.1,8.667a2.15,2.15,0,0,0,.573-1.632A2.775,2.775,0,0,0,6.2,5.3a1.623,1.623,0,0,0-1.357-.611,1.069,1.069,0,0,0-.735.181,1.334,1.334,0,0,0-.172.84Z" transform="translate(-0.053 -1.776)" fill="#fefefe" fill-rule="evenodd"/><path d="M48.29,6.206l.056-.793a4.175,4.175,0,0,1,1.137-2.645,3.3,3.3,0,0,1,2.435-.975,3.053,3.053,0,0,1,1.347.258q.534.248.534.62a2.878,2.878,0,0,1-.372,1.309c-.248.472-.471.706-.669.706-.179,0-.372-.279-.582-.84-.057-.153-.1-.271-.134-.354a2.342,2.342,0,0,0-.324-.582.463.463,0,0,0-.325-.219q-.373,0-.573.764a9.465,9.465,0,0,0-.191,2.187v.751a.29.29,0,0,0,.067.2.217.217,0,0,0,.172.076h1.385a.209.209,0,0,1,.162.048.466.466,0,0,1,.038.233v.43a.323.323,0,0,1-.047.2.15.15,0,0,1-.134.058h-1.4a.22.22,0,0,0-.172.076.272.272,0,0,0-.067.2v5.607a2.138,2.138,0,0,0,.086.7.6.6,0,0,0,.286.324,1.836,1.836,0,0,0,.621.125q.459.038.459.382a.378.378,0,0,1-.1.278.331.331,0,0,1-.257.095c-.032,0-.118-.006-.258-.018a16.221,16.221,0,0,0-2.053-.135,15.1,15.1,0,0,0-1.757.115h-.076a1.644,1.644,0,0,0-.182.01l-.115.01a.27.27,0,0,1-.209-.1.4.4,0,0,1-.086-.258.382.382,0,0,1,.086-.277.627.627,0,0,1,.363-.114.922.922,0,0,0,.191-.019.744.744,0,0,0,.163-.058.634.634,0,0,0,.324-.305,2.2,2.2,0,0,0,.086-.754V7.829l0,0a.181.181,0,0,0-.19-.187H47.1a.173.173,0,0,1-.146-.058.317.317,0,0,1-.048-.2v-.46a.323.323,0,0,1,.038-.2.2.2,0,0,1,.162-.048h.946a.221.221,0,0,0,.175-.073,1.054,1.054,0,0,0,.064-.4" transform="translate(-21.143 -0.814)" fill="#fefefe" fill-rule="evenodd"/><path d="M37.149,9.922V10.8a.934.934,0,0,0,.009.173.056.056,0,0,0,.048.028.093.093,0,0,0,.068-.028,1.178,1.178,0,0,0,.1-.087l.171-.238a2.38,2.38,0,0,1,.679-.611,1.405,1.405,0,0,1,.725-.21,2.158,2.158,0,0,1,1.3.55c.268.274.243.318.243.757a3.057,3.057,0,0,1-.645,1.466c-.223.281-.273.285-.463.234-.344-.094-.652-1.348-.938-1.717a.381.381,0,0,0-.636.008,3.077,3.077,0,0,0-.487.86,2.1,2.1,0,0,0-.1.735v4.2a2.538,2.538,0,0,0,.067.707.578.578,0,0,0,.248.315,1.26,1.26,0,0,0,.506.124c.248.026.372.153.372.382a.5.5,0,0,1-.057.258.173.173,0,0,1-.153.1l-.124-.009a1.55,1.55,0,0,0-.172-.01h-.057a16.142,16.142,0,0,0-1.843-.115,15.246,15.246,0,0,0-1.814.115H34.16a1.631,1.631,0,0,0-.182.01l-.1.009a.27.27,0,0,1-.211-.1.392.392,0,0,1-.086-.258.413.413,0,0,1,.076-.277.657.657,0,0,1,.373-.114.858.858,0,0,0,.191-.02.685.685,0,0,0,.162-.057.644.644,0,0,0,.325-.305,2.207,2.207,0,0,0,.085-.754V12.8c-.006-.025-.013-.054-.019-.086v-.162a.909.909,0,0,0-.1-.468.492.492,0,0,0-.3-.219c-.057-.013-.112-.023-.162-.029s-.086-.022-.124-.029h-.029c-.242-.044-.363-.156-.363-.334q0-.315.564-.487a.059.059,0,0,1,.038-.019,1.663,1.663,0,0,0,.344-.1c.121-.044.247-.1.382-.162a4.754,4.754,0,0,0,1.118-.764q.553-.506.7-.506a.273.273,0,0,1,.23.086.761.761,0,0,1,.067.4" transform="translate(-15.149 -4.254)" fill="#fefefe" fill-rule="evenodd"/><path d="M93.072,6.808V8.451a.345.345,0,0,0,.057.21.2.2,0,0,0,.162.067h1.251a.321.321,0,0,1,.21.047c.038.032.057.112.057.239v.3a.656.656,0,0,1-.057.343.264.264,0,0,1-.21.068H93.292a.211.211,0,0,0-.172.067.358.358,0,0,0-.048.209l-.034,4.386a7.034,7.034,0,0,0,.091,1.5c.082.285.219.429.411.429a1.066,1.066,0,0,0,.564-.247,1.3,1.3,0,0,1,.439-.258c.057,0,.127.045.21.134a.355.355,0,0,1,.124.239q0,.459-.841,1.031a2.919,2.919,0,0,1-1.672.573,1.538,1.538,0,0,1-1.356-.6,3.583,3.583,0,0,1-.42-1.977l.034-4.939c0-.249.026-.354-.019-.431a.2.2,0,0,0-.2-.108l-.578,0c-.159,0-.2-.02-.257-.078a1.148,1.148,0,0,1-.018-.342c0-.07,0-.278,0-.3a.288.288,0,0,1,.058-.224c.1-.069.1-.051.217-.051a3.33,3.33,0,0,0,.633-.049,2.22,2.22,0,0,0,1.133-.851A2.857,2.857,0,0,0,92.05,6.6c.031-.125.019-.177.075-.254a.3.3,0,0,1,.229-.062,3.206,3.206,0,0,1,.45.006c.115,0,.181,0,.226.071a1.034,1.034,0,0,1,.043.451" transform="translate(-40.341 -2.83)" fill="#fefefe" fill-rule="evenodd"/><path d="M61.134,9.9a4.02,4.02,0,0,1,3.152,1.289,4.941,4.941,0,0,1,1.165,3.457,4.752,4.752,0,0,1-1.2,3.41,3.872,3.872,0,0,1-3.073,1.27A4.174,4.174,0,0,1,58,18.016a5.009,5.009,0,0,1-1.137-3.409,4.849,4.849,0,0,1,1.184-3.4A3.969,3.969,0,0,1,61.134,9.9m.084.721a1.366,1.366,0,0,0-1.254.884,6.006,6.006,0,0,0-.527,2.533,8.473,8.473,0,0,0,.41,3.291Q60.34,18.569,61.2,18.6a1.342,1.342,0,0,0,1.226-.893,6.014,6.014,0,0,0,.538-2.543,8.394,8.394,0,0,0-.411-3.273q-.482-1.24-1.332-1.269" transform="translate(-25.628 -4.463)" fill="#fefefe" fill-rule="evenodd"/><path d="M78.282,9.9a4.02,4.02,0,0,1,3.152,1.289A4.944,4.944,0,0,1,82.6,14.646a4.752,4.752,0,0,1-1.2,3.41,3.871,3.871,0,0,1-3.072,1.27,4.173,4.173,0,0,1-3.173-1.309,5.009,5.009,0,0,1-1.137-3.409,4.851,4.851,0,0,1,1.184-3.4A3.969,3.969,0,0,1,78.282,9.9m.084.721a1.366,1.366,0,0,0-1.254.884,6.022,6.022,0,0,0-.528,2.533,8.481,8.481,0,0,0,.411,3.291q.492,1.241,1.352,1.271a1.341,1.341,0,0,0,1.225-.893,6.022,6.022,0,0,0,.538-2.543,8.4,8.4,0,0,0-.411-3.273q-.483-1.24-1.332-1.269" transform="translate(-33.347 -4.463)" fill="#fefefe" fill-rule="evenodd"/><path d="M208.681,9.638v.825a.643.643,0,0,0,.019.211.085.085,0,0,0,.076.028.175.175,0,0,0,.057-.009.229.229,0,0,0,.067-.048l.193-.221a3.188,3.188,0,0,1,.958-.728,2.481,2.481,0,0,1,1.084-.25,2.643,2.643,0,0,1,2.263,1.3,5.914,5.914,0,0,1,.882,3.385,5.524,5.524,0,0,1-1.027,3.433,3.118,3.118,0,0,1-2.57,1.343,3.936,3.936,0,0,1-.978-.115,4.1,4.1,0,0,1-.93-.373l-.057.058v2.511a2.351,2.351,0,0,0,.068.681.566.566,0,0,0,.268.316,1.418,1.418,0,0,0,.45.125h.039q.469.066.47.412a.389.389,0,0,1-.085.25.225.225,0,0,1-.184.1,3.512,3.512,0,0,1-.355-.037,18.382,18.382,0,0,0-1.889-.106,18.127,18.127,0,0,0-1.879.106c-.192.025-.31.037-.354.037a.22.22,0,0,1-.183-.1.416.416,0,0,1-.077-.25.422.422,0,0,1,.086-.288.635.635,0,0,1,.384-.1,1.029,1.029,0,0,0,.2-.019.736.736,0,0,0,.172-.058.589.589,0,0,0,.346-.316,2.182,2.182,0,0,0,.087-.749V12.255a.726.726,0,0,0-.135-.47.91.91,0,0,0-.527-.24H205.6c-.275-.07-.412-.189-.412-.354a.367.367,0,0,1,.106-.288,1.174,1.174,0,0,1,.518-.183.631.631,0,0,1,.1-.02,4.89,4.89,0,0,0,.748-.239,3.928,3.928,0,0,0,1.4-1l.02-.019a1.927,1.927,0,0,1,.23-.23.272.272,0,0,1,.163-.067.162.162,0,0,1,.154.124.91.91,0,0,1,.058.365Zm.038,7.029A1.741,1.741,0,0,0,209,17.751a1.04,1.04,0,0,0,.862.354,1.558,1.558,0,0,0,1.391-1,6.085,6.085,0,0,0,.518-2.753,5.092,5.092,0,0,0-.547-2.53,1.581,1.581,0,0,0-1.382-.969.928.928,0,0,0-.872.422,3.765,3.765,0,0,0-.249,1.7Z" transform="translate(-92.315 -4.125)" fill="#fefefe" fill-rule="evenodd"/><path d="M182.869,9.673v.911a.327.327,0,0,0,.019.124.08.08,0,0,0,.067.048.237.237,0,0,0,.058-.029c.031-.026.064-.054.1-.086l.278-.279a2.739,2.739,0,0,1,.95-.661,2.918,2.918,0,0,1,1.15-.221,2.427,2.427,0,0,1,2.254,1.314h.087a3.442,3.442,0,0,1,1.15-.958,2.965,2.965,0,0,1,1.381-.355,2.408,2.408,0,0,1,1.909.72,3.174,3.174,0,0,1,.643,2.166v4.316a2.564,2.564,0,0,0,.067.729.529.529,0,0,0,.249.3,1.2,1.2,0,0,0,.432.115c.312.038.468.176.468.412a.346.346,0,0,1-.095.268.387.387,0,0,1-.279.086c-.018,0-.217-.026-.594-.077a8.267,8.267,0,0,0-1.093-.076,20.629,20.629,0,0,0-2.2.114c-.115.013-.182.02-.2.02a.3.3,0,0,1-.221-.086.365.365,0,0,1-.076-.25q0-.355.431-.412a1.415,1.415,0,0,0,.3-.077.562.562,0,0,0,.3-.3,2.527,2.527,0,0,0,.078-.767V12.876a3.656,3.656,0,0,0-.288-1.64.907.907,0,0,0-.854-.556,1.065,1.065,0,0,0-1,.528,3.888,3.888,0,0,0-.3,1.8V16.73a2.546,2.546,0,0,0,.068.709.535.535,0,0,0,.249.307,1.126,1.126,0,0,0,.231.077.384.384,0,0,1,.374.412.473.473,0,0,1-.058.26.168.168,0,0,1-.153.076c-.007,0-.038,0-.1-.01a1.117,1.117,0,0,0-.143-.01h-.059a12.622,12.622,0,0,0-1.629-.114,13.534,13.534,0,0,0-1.669.114h-.077a1.623,1.623,0,0,0-.162.01,1.1,1.1,0,0,1-.116.01.3.3,0,0,1-.22-.086.37.37,0,0,1-.076-.25q0-.355.44-.412a1.379,1.379,0,0,0,.289-.077.56.56,0,0,0,.3-.3,2.532,2.532,0,0,0,.077-.767V12.876a3.656,3.656,0,0,0-.287-1.64.906.906,0,0,0-.854-.556,1.066,1.066,0,0,0-1,.528,3.9,3.9,0,0,0-.3,1.8v3.673a3.552,3.552,0,0,0,.048.719.573.573,0,0,0,.192.306.779.779,0,0,0,.336.115.365.365,0,0,1,.345.393.57.57,0,0,1-.049.269.129.129,0,0,1-.124.086c-.007,0-.037,0-.087-.01a1.183,1.183,0,0,0-.153-.01h-.018a13.065,13.065,0,0,0-1.708-.114,15.208,15.208,0,0,0-1.763.114h-.078q-.077,0-.181.01c-.064.007-.1.01-.115.01a.3.3,0,0,1-.22-.086.387.387,0,0,1-.077-.25c0-.223.136-.361.412-.412h.038a.841.841,0,0,0,.192-.02.753.753,0,0,0,.488-.364,2.2,2.2,0,0,0,.086-.757V12.664a2.751,2.751,0,0,0-.057-.718.531.531,0,0,0-.21-.268,1.343,1.343,0,0,0-.375-.116h-.057q-.393-.067-.393-.335a.36.36,0,0,1,.1-.269,1.262,1.262,0,0,1,.489-.2.853.853,0,0,0,.114-.039,3.534,3.534,0,0,0,.633-.22,4.053,4.053,0,0,0,1.1-.8q.519-.519.6-.519a.144.144,0,0,1,.145.106,1,1,0,0,1,.048.384" transform="translate(-80.838 -4.141)" fill="#fefefe" fill-rule="evenodd"/><path d="M168.17,9.28a4.033,4.033,0,0,1,3.164,1.294,4.964,4.964,0,0,1,1.171,3.471,4.772,4.772,0,0,1-1.209,3.423,4.287,4.287,0,0,1-3.27,1.275,3.8,3.8,0,0,1-3-1.313,5.029,5.029,0,0,1-1.141-3.423,4.869,4.869,0,0,1,1.189-3.413,3.981,3.981,0,0,1,3.1-1.314m-.1.729a1.37,1.37,0,0,0-1.228.93,6.051,6.051,0,0,0-.441,2.56,8.517,8.517,0,0,0,.527,3.289q.538,1.228,1.4,1.227a1.346,1.346,0,0,0,1.2-.94,6.049,6.049,0,0,0,.45-2.568,8.421,8.421,0,0,0-.527-3.27q-.527-1.227-1.38-1.227" transform="translate(-73.803 -4.184)" fill="#fefefe" fill-rule="evenodd"/><path d="M150.18,3.017V6.728a.342.342,0,0,0,.019.125c.019.031.038.047.057.047a.148.148,0,0,0,.058-.019c.025-.019.059-.045.1-.076l.413-.3a2.838,2.838,0,0,1,.8-.394,2.716,2.716,0,0,1,.873-.153,2.386,2.386,0,0,1,1.917.738,3.326,3.326,0,0,1,.634,2.225v4.257a2.527,2.527,0,0,0,.067.71.586.586,0,0,0,.249.317,1.73,1.73,0,0,0,.509.115q.393.048.393.393a.366.366,0,0,1-.087.269.37.37,0,0,1-.268.086q-.01,0-.6-.067a10.712,10.712,0,0,0-1.179-.067,19.259,19.259,0,0,0-2.12.115c-.108.012-.175.018-.2.019a.285.285,0,0,1-.22-.1.405.405,0,0,1-.077-.26c0-.236.147-.373.442-.412a1.014,1.014,0,0,0,.288-.058.565.565,0,0,0,.3-.3,2.545,2.545,0,0,0,.076-.768V9.356a3.65,3.65,0,0,0-.288-1.65.9.9,0,0,0-.853-.547,1.065,1.065,0,0,0-1,.528,3.889,3.889,0,0,0-.3,1.8v3.692a3.55,3.55,0,0,0,.048.719.576.576,0,0,0,.191.308.814.814,0,0,0,.337.115.364.364,0,0,1,.345.393.584.584,0,0,1-.048.269.131.131,0,0,1-.125.086l-.086-.009a1.2,1.2,0,0,0-.153-.009h-.019a12.948,12.948,0,0,0-1.707-.115,15.1,15.1,0,0,0-1.764.115h-.078c-.05,0-.111,0-.181.009l-.115.009a.271.271,0,0,1-.211-.1.4.4,0,0,1-.087-.26.414.414,0,0,1,.077-.278.654.654,0,0,1,.374-.115.852.852,0,0,0,.191-.019.724.724,0,0,0,.164-.058.643.643,0,0,0,.326-.307,2.188,2.188,0,0,0,.087-.758V4.273a1.782,1.782,0,0,0-.078-.594.677.677,0,0,0-.259-.336.562.562,0,0,0-.162-.076,1.051,1.051,0,0,0-.2-.057h-.028c-.245-.071-.366-.2-.366-.374a.421.421,0,0,1,.134-.336,1.744,1.744,0,0,1,.691-.211.279.279,0,0,0,.068-.009l.144-.028a6.844,6.844,0,0,0,1.486-.509q.7-.336.739-.336a.249.249,0,0,1,.22.115.55.55,0,0,1,.086.335q0,.126-.019.518c-.013.257-.019.47-.019.643" transform="translate(-65.989 -0.64)" fill="#fefefe" fill-rule="evenodd"/><path d="M135.89,2.37l-2.048.023-2.069-.015c-.383,0-2.032-.1-2.221-.071-.085.067-.175.034-.186.152-.066.788-.112,2.765-.112,2.837a.4.4,0,0,0,.068.25.268.268,0,0,0,.211.086q.22,0,.527-.594a9.375,9.375,0,0,1,.537-.844,2.276,2.276,0,0,1,.662-.633,1.508,1.508,0,0,1,.786-.211h.24a.194.194,0,0,1,.163.077.275.275,0,0,1,.067.2V13.743a1.181,1.181,0,0,1-.145.671.818.818,0,0,1-.537.268h-.086c-.327.07-.489.2-.489.393a.332.332,0,0,0,.12.262.35.35,0,0,0,.269.115c.032,0,1.5-.135,2.15-.135s2.21.135,2.242.135a.343.343,0,0,0,.279-.115.366.366,0,0,0,.09-.282c0-.179-.157-.3-.47-.354-.064-.006-.118-.013-.163-.019a.735.735,0,0,1-.5-.268,1.208,1.208,0,0,1-.143-.652V3.627a.309.309,0,0,1,.057-.2.213.213,0,0,1,.17-.076l.239-.009a1.511,1.511,0,0,1,.786.211,2.271,2.271,0,0,1,.663.633,9.1,9.1,0,0,1,.537.845c.2.4.381.594.527.594a.266.266,0,0,0,.211-.086.39.39,0,0,0,.068-.249c0-.073-.046-2.049-.112-2.837-.01-.119-.1-.086-.186-.152-.189-.029-1.818.073-2.2.073" transform="translate(-58.215 -1.039)" fill="#fefefe" fill-rule="evenodd"/><path d="M226.42,9.69a5.8,5.8,0,0,1,1.035.1,4.83,4.83,0,0,1,.93.259.584.584,0,0,1,.316.211.927.927,0,0,1,.078.45c0,.166,0,.358-.01.575s-.009.337-.009.375a.6.6,0,0,1-.087.345.282.282,0,0,1-.249.125q-.182,0-.758-.882a1.6,1.6,0,0,0-1.305-.892,1.35,1.35,0,0,0-.891.288.884.884,0,0,0-.345.719q0,.68,1.553,1.352l.355.163a4.241,4.241,0,0,1,1.716,1.209,2.743,2.743,0,0,1,.5,1.7,3.18,3.18,0,0,1-1.008,2.435,3.7,3.7,0,0,1-2.627.94,4.057,4.057,0,0,1-1.831-.355,1.038,1.038,0,0,1-.7-.92,10.392,10.392,0,0,1,.076-1.553c.058-.288.157-.431.3-.431q.268,0,.509.652a7,7,0,0,0,.316.738,2.364,2.364,0,0,0,.719.9,1.7,1.7,0,0,0,.969.277A1.506,1.506,0,0,0,227,18.1a1.137,1.137,0,0,0,.423-.891,1.227,1.227,0,0,0-.26-.816,3.751,3.751,0,0,0-1.179-.776l-.393-.192q-2.415-1.18-2.417-2.829a2.683,2.683,0,0,1,.882-2.109,3.389,3.389,0,0,1,2.359-.8" transform="translate(-100.452 -4.369)" fill="#fefefe" fill-rule="evenodd"/><path d="M254.5,9.638v.806a.636.636,0,0,0,.019.183.069.069,0,0,0,.067.057.179.179,0,0,0,.058-.009.371.371,0,0,0,.058-.048l.172-.183a3.258,3.258,0,0,1,2.243-1,2.448,2.448,0,0,1,1.9.71,2.927,2.927,0,0,1,.651,2.061v4.449a2.651,2.651,0,0,0,.067.719.539.539,0,0,0,.25.306,1.663,1.663,0,0,0,.508.115q.393.049.394.393a.414.414,0,0,1-.076.25.226.226,0,0,1-.181.105c-.026,0-.1-.007-.231-.02a16.984,16.984,0,0,0-1.946-.114,15.474,15.474,0,0,0-1.631.095.364.364,0,0,1-.1.019c-.052,0-.112,0-.183.01s-.1.009-.115.01a.285.285,0,0,1-.22-.1.4.4,0,0,1-.076-.259q0-.355.44-.413a.977.977,0,0,0,.289-.057.561.561,0,0,0,.3-.3,2.5,2.5,0,0,0,.076-.767V12.841a3.663,3.663,0,0,0-.287-1.649.9.9,0,0,0-.853-.547,1.066,1.066,0,0,0-1,.527,3.892,3.892,0,0,0-.3,1.8v3.692a3.511,3.511,0,0,0,.048.719.576.576,0,0,0,.192.306.784.784,0,0,0,.335.115.358.358,0,0,1,.345.393.437.437,0,0,1-.058.259.247.247,0,0,1-.211.076c-.025,0-.092-.005-.2-.019a15.008,15.008,0,0,0-1.669-.095,15.484,15.484,0,0,0-1.822.114h-.038a1.8,1.8,0,0,0-.182.01c-.057.007-.089.009-.1.01a.273.273,0,0,1-.211-.1.394.394,0,0,1-.086-.259.412.412,0,0,1,.077-.278.643.643,0,0,1,.373-.115.873.873,0,0,0,.192-.02.754.754,0,0,0,.488-.364,2.186,2.186,0,0,0,.086-.757V12.649a2.722,2.722,0,0,0-.058-.719.533.533,0,0,0-.211-.268.99.99,0,0,0-.393-.116h-.019a.36.36,0,0,0-.068-.019c-.229-.058-.345-.17-.345-.335,0-.212.189-.367.566-.47.146-.039.284-.08.412-.125a3.607,3.607,0,0,0,.373-.153,3.979,3.979,0,0,0,1.094-.8c.333-.332.53-.5.595-.5a.144.144,0,0,1,.144.105,1,1,0,0,1,.048.384" transform="translate(-113.085 -4.125)" fill="#fefefe" fill-rule="evenodd"/><path d="M239.813,9.57a4.018,4.018,0,0,1,3.152,1.289,4.939,4.939,0,0,1,1.165,3.457,4.755,4.755,0,0,1-1.2,3.409A3.868,3.868,0,0,1,239.855,19a4.175,4.175,0,0,1-3.173-1.308,5.01,5.01,0,0,1-1.137-3.41,4.847,4.847,0,0,1,1.184-3.4,3.964,3.964,0,0,1,3.084-1.309m.084.721a1.366,1.366,0,0,0-1.254.883,6.043,6.043,0,0,0-.528,2.533A8.5,8.5,0,0,0,238.526,17q.492,1.24,1.351,1.271a1.342,1.342,0,0,0,1.226-.894,6.034,6.034,0,0,0,.537-2.542,8.368,8.368,0,0,0-.412-3.273q-.482-1.24-1.332-1.27" transform="translate(-106.062 -4.315)" fill="#fefefe" fill-rule="evenodd"/><path d="M110.357.958a.322.322,0,0,1,.123.245c0,.209,0,.78,0,.785-.016.1-.045.189-.159.1a2.614,2.614,0,0,0-2.9-.207,1.852,1.852,0,0,0-.6,2.485c.64,1.2,1.834.951,2.953.936a.2.2,0,0,1,.2.2l0,.735c0,.141-.106.186-.253.18s-.175.005-.288,0a3.594,3.594,0,0,0-2.92,1.161,4.421,4.421,0,0,0-.719,5.008,3.534,3.534,0,0,0,2.247,1.938c1.483.34,2.546.271,3.482-.832a2.613,2.613,0,0,0,.473-2.825,2.336,2.336,0,0,0-3.093-.761,2.9,2.9,0,0,0-.406.317.1.1,0,0,1-.13-.023s-.4-.56-.4-.561a.148.148,0,0,1-.026-.177,3.077,3.077,0,0,1,.228-.3c1.255-1.393,2.89-.56,4.655-.55a2.4,2.4,0,0,0,2.243-.9c.46-.73-.185-1.772-1.276-2.05a4.25,4.25,0,0,0-1.8.065c-.095.025-.125-.009-.13-.085,0-.026,0-.509-.007-.511a.24.24,0,0,1,.164-.22,3.932,3.932,0,0,1,1.3-.4,3.647,3.647,0,0,1,3.174.909,3.174,3.174,0,0,1,.759,3.106,2.981,2.981,0,0,1-1.71,1.774,2.349,2.349,0,0,1-2.141-.185,4.482,4.482,0,0,1-.762,4.857c-1.762,1.737-3.866,1.824-6.416,1.293-2.625-.785-3.8-2.252-4.274-3.931a5.559,5.559,0,0,1,1.7-5.667,8.217,8.217,0,0,1,1.851-1.02,2.959,2.959,0,0,1-1.527-2.487,3.133,3.133,0,0,1,1.746-2.89,4.339,4.339,0,0,1,4.283.272c.139.085.34.228.345.232" transform="translate(-45.839 -0.012)" fill="#fefefe" fill-rule="evenodd"/><path d="M245.461,29.1l-.823,2.187-.82-2.187h-.457V31.77h.347l-.038-2.2.827,2.2h.277l.841-2.238-.048,2.238h.352V29.1Zm2.2,1.534.725,1.134h.423l-.748-1.157a.689.689,0,0,0,.63-.733.74.74,0,0,0-.278-.616,1.224,1.224,0,0,0-.8-.162h-.99V31.77h.347V30.635Zm-.689-1.24h.689a.756.756,0,0,1,.517.113.478.478,0,0,1,.159.374.41.41,0,0,1-.334.432,1.284,1.284,0,0,1-.324.027h-.708Zm3.976,1.157v-.313h-1.3v-.825h1.5V29.1h-1.841V31.77h1.886v-.31h-1.542v-.908Zm.757,1.218h.359V29.1h-.359Zm2.832-2.668.014,2.139L253.1,29.1h-.333V31.77h.333l-.03-2.17,1.464,2.17h.32V29.1Zm.9,0v.329h1.515L255.3,31.422v.347h2.089v-.321h-1.678l1.64-2.015V29.1Z" transform="translate(-109.58 -13.107)" fill="#fefefe" fill-rule="evenodd"/><path d="M1.287,31.868h1.19v.293H.96V29.7h.327Z" transform="translate(-0.461 -13.377)" fill="#fefefe" fill-rule="evenodd"/><path d="M4.383,32.164h.268V30.525H4.383Zm0-2.137h.268v-.319H4.383Z" transform="translate(-2.002 -13.38)" fill="#fefefe" fill-rule="evenodd"/><path d="M7.082,32.2a.8.8,0,0,1-.094.279.7.7,0,0,1-.671.361.783.783,0,0,1-.818-.852.793.793,0,0,1,.793-.888.716.716,0,0,1,.759.55l-.306.029A.421.421,0,0,0,6.3,31.3c-.477,0-.5.52-.5.665a.817.817,0,0,0,.107.442.456.456,0,0,0,.407.218.447.447,0,0,0,.464-.455Z" transform="translate(-2.504 -14.006)" fill="#fefefe" fill-rule="evenodd"/><path d="M10.064,31.816a.473.473,0,0,0-.47-.5c-.236,0-.434.175-.466.5Zm.3.47a.742.742,0,0,1-.741.553.873.873,0,0,1-.01-1.74.715.715,0,0,1,.72.582,1.5,1.5,0,0,1,.031.333H9.121a.547.547,0,0,0,.528.617.435.435,0,0,0,.435-.384Z" transform="translate(-4 -14.006)" fill="#fefefe" fill-rule="evenodd"/><path d="M12.637,31.15v.24a.58.58,0,0,1,.512-.293.542.542,0,0,1,.539.377,1.288,1.288,0,0,1,.026.337v.978h-.274v-.933a.9.9,0,0,0-.018-.271.347.347,0,0,0-.351-.227.421.421,0,0,0-.313.126.452.452,0,0,0-.122.368v.936h-.278V31.15Z" transform="translate(-5.593 -14.006)" fill="#fefefe" fill-rule="evenodd"/><path d="M16.053,32.069c-.264-.063-.588-.136-.588-.477,0-.3.255-.488.634-.488a.648.648,0,0,1,.7.537l-.3.038a.287.287,0,0,0-.117-.264.512.512,0,0,0-.318-.1c-.215,0-.323.128-.323.239,0,.157.178.206.393.258l.156.038c.2.045.547.129.547.474,0,.267-.237.518-.688.518a.909.909,0,0,1-.509-.131.633.633,0,0,1-.243-.446l.313-.048a.372.372,0,0,0,.123.319.48.48,0,0,0,.33.1c.244,0,.387-.1.387-.272s-.143-.224-.341-.262Z" transform="translate(-6.961 -14.009)" fill="#fefefe" fill-rule="evenodd"/><path d="M19.79,31.816a.473.473,0,0,0-.47-.5c-.237,0-.434.175-.467.5Zm.3.47a.743.743,0,0,1-.741.553.873.873,0,0,1-.011-1.74.716.716,0,0,1,.721.582,1.528,1.528,0,0,1,.03.333H18.847a.548.548,0,0,0,.529.617.434.434,0,0,0,.434-.384Z" transform="translate(-8.379 -14.006)" fill="#fefefe" fill-rule="evenodd"/><path d="M22.265,31.344c0,.337.157.619.512.619.317,0,.515-.236.515-.631,0-.462-.283-.608-.5-.611s-.522.125-.522.623Zm1.3-1.643v2.46h-.279v-.212a.671.671,0,0,1-.564.261c-.473,0-.752-.354-.752-.878a.763.763,0,0,1,.748-.863.713.713,0,0,1,.568.269V29.7Z" transform="translate(-9.918 -13.377)" fill="#fefefe" fill-rule="evenodd"/><path d="M27.811,30.848h.651a1.187,1.187,0,0,0,.3-.025.377.377,0,0,0,.307-.4.439.439,0,0,0-.146-.345.692.692,0,0,0-.477-.1h-.633Zm0,.271v1.044H27.49V29.706H28.4a1.13,1.13,0,0,1,.734.15.677.677,0,0,1,.257.567.635.635,0,0,1-.581.675l.689,1.065h-.39l-.668-1.044Z" transform="translate(-12.404 -13.379)" fill="#fefefe" fill-rule="evenodd"/><path d="M32.343,31.043v.835h1.42v.285H32.025V29.707h1.7V30H32.343v.759h1.2v.289Z" transform="translate(-14.446 -13.379)" fill="#fefefe" fill-rule="evenodd"/><path d="M37.218,31.137l-.359-1.023-.376,1.023Zm.1.275h-.936l-.275.752h-.348l.936-2.457h.341l.895,2.457h-.345Z" transform="translate(-16.125 -13.379)" fill="#fefefe" fill-rule="evenodd"/><path d="M41.7,31.137l-.358-1.023-.376,1.023Zm.1.275h-.936l-.275.752h-.348l.936-2.457h.343l.893,2.457h-.345Z" transform="translate(-18.141 -13.379)" fill="#fefefe" fill-rule="evenodd"/><path d="M48.007,31.971v.268H46.472v-.3a3.221,3.221,0,0,0,.744-.56,1.114,1.114,0,0,0,.439-.783.443.443,0,1,0-.885.01,1.055,1.055,0,0,0,.043.279h-.306a.83.83,0,0,1-.042-.279.73.73,0,0,1,.2-.536.807.807,0,0,1,.553-.2.718.718,0,0,1,.759.736,1.416,1.416,0,0,1-.612,1.007,4.14,4.14,0,0,1-.488.355Z" transform="translate(-20.946 -13.454)" fill="#fefefe" fill-rule="evenodd"/><path d="M51.049,30.143a.444.444,0,0,0-.407.251,1.5,1.5,0,0,0-.133.675,1.451,1.451,0,0,0,.129.658.457.457,0,0,0,.41.264c.494,0,.528-.713.528-.922,0-.41-.114-.926-.528-.926m0,2.117c-.533,0-.846-.494-.846-1.173s.3-1.215.839-1.215c.448,0,.852.4.852,1.193,0,.7-.317,1.195-.846,1.195" transform="translate(-22.627 -13.454)" fill="#fefefe" fill-rule="evenodd"/><path d="M54.906,30.143a.446.446,0,0,0-.407.251,1.5,1.5,0,0,0-.131.675,1.443,1.443,0,0,0,.129.658.456.456,0,0,0,.41.264c.495,0,.529-.713.529-.922,0-.41-.115-.926-.529-.926m0,2.117c-.532,0-.846-.494-.846-1.173s.3-1.215.838-1.215c.45,0,.853.4.853,1.193,0,.7-.317,1.195-.846,1.195" transform="translate(-24.364 -13.454)" fill="#fefefe" fill-rule="evenodd"/><path d="M58.648,30.14c-.31,0-.456.146-.456.344a.367.367,0,0,0,.122.279.542.542,0,0,0,.345.092.515.515,0,0,0,.337-.09.341.341,0,0,0,.122-.274c0-.31-.3-.351-.47-.351m0,.978c-.369,0-.508.205-.508.421,0,.278.223.435.525.435s.511-.174.508-.443-.2-.413-.526-.413m.848.413a.845.845,0,0,1-1.673.01.644.644,0,0,1,.073-.309.6.6,0,0,1,.247-.254.53.53,0,0,1-.261-.483.59.59,0,0,1,.208-.467.96.96,0,0,1,.575-.156,1.205,1.205,0,0,1,.33.037.577.577,0,0,1,.436.582.523.523,0,0,1-.268.487.6.6,0,0,1,.333.553" transform="translate(-26.059 -13.454)" fill="#fefefe" fill-rule="evenodd"/></g></g></g></svg>