<svg xmlns="http://www.w3.org/2000/svg" width="23" height="24" viewBox="0 0 23 24"><g transform="translate(-284 -2323.002)"><path d="M296.5,2339l-.045,0a.5.5,0,0,1-.453-.543l1-11a.5.5,0,0,1,.5-.455h3a.5.5,0,0,1,.5.455l.425,4.679.578-8.667a.5.5,0,0,1,.5-.467h3a.5.5,0,0,1,.5.467l1,15a.5.5,0,1,1-1,.066L305.032,2324h-2.064L302,2338.535a.5.5,0,0,1-.493.467.525.525,0,0,1-.5-.455L300.043,2328h-2.087L297,2338.547A.5.5,0,0,1,296.5,2339Z" fill="#84bf41"/><path d="M306.5,2347h-22a.5.5,0,0,1-.5-.5v-14a.5.5,0,0,1,.5-.5h10a.5.5,0,0,1,.5.5v5.5h11.5a.5.5,0,0,1,.5.5v8A.5.5,0,0,1,306.5,2347Zm-21.5-1h21v-7H294.5a.5.5,0,0,1-.5-.5V2333h-9Z" fill="#84bf41"/><path d="M289.5,2333a.5.5,0,0,1-.489-.4l-.92-4.6h-1.18l-.92,4.6a.5.5,0,0,1-.98-.2l1-5a.5.5,0,0,1,.49-.4h2a.5.5,0,0,1,.49.4l1,5a.5.5,0,0,1-.392.588A.47.47,0,0,1,289.5,2333Z" fill="#84bf41"/><path d="M292.5,2339h-6a.5.5,0,0,1-.5-.5v-4a.5.5,0,0,1,.5-.5h6a.5.5,0,0,1,.5.5v4A.5.5,0,0,1,292.5,2339Zm-5.5-1h5v-3h-5Z" fill="#84bf41"/><path d="M292.5,2345h-6a.5.5,0,0,1-.5-.5v-4a.5.5,0,0,1,.5-.5h6a.5.5,0,0,1,.5.5v4A.5.5,0,0,1,292.5,2345Zm-5.5-1h5v-3h-5Z" fill="#84bf41"/><path d="M304.5,2345h-4a.5.5,0,0,1-.5-.5v-4a.5.5,0,0,1,.5-.5h4a.5.5,0,0,1,.5.5v4A.5.5,0,0,1,304.5,2345Zm-3.5-1h3v-3h-3Z" fill="#84bf41"/><path d="M298.5,2345h-4a.5.5,0,0,1-.5-.5v-4a.5.5,0,0,1,.5-.5h4a.5.5,0,0,1,.5.5v4A.5.5,0,0,1,298.5,2345Zm-3.5-1h3v-3h-3Z" fill="#84bf41"/></g></svg>