<svg xmlns="http://www.w3.org/2000/svg" width="140" height="49.859" viewBox="0 0 140 49.859">
  <g id="Crockers" transform="translate(0 0)">
    <path id="Path_124" data-name="Path 124" d="M501.039,18.62h0l-11.39-.029a1.318,1.318,0,0,1-1.315-1.32l.012-6.752-1.373,0a1.318,1.318,0,0,1-.895-2.284L494.543.353a1.32,1.32,0,0,1,1.809.011l8.395,8.008a1.319,1.319,0,0,1-.911,2.272h0l-1.463,0-.012,6.661a1.321,1.321,0,0,1-1.319,1.318" transform="translate(-365.155 0)" fill="#85c140"/>
    <path id="Path_125" data-name="Path 125" d="M510.156,33.985a5.15,5.15,0,1,1,3.636-8.789,1.063,1.063,0,0,1-.75,1.82,1.006,1.006,0,0,1-.755-.323,2.943,2.943,0,0,0-2.13-.873,3.014,3.014,0,1,0,2.136,5.15,1.056,1.056,0,0,1,.75-.316,1.1,1.1,0,0,1,1.068,1.067,1.059,1.059,0,0,1-.316.75,5.116,5.116,0,0,1-3.637,1.514Z" transform="translate(-379.705 -17.808)" fill="#fff"/>
    <path id="Path_126" data-name="Path 126" d="M0,55.014a8.458,8.458,0,0,1,.714-3.455,9.422,9.422,0,0,1,1.916-2.834,8.734,8.734,0,0,1,2.835-1.916,8.883,8.883,0,0,1,3.512-.7,8.732,8.732,0,0,1,4.939,1.522,9.223,9.223,0,0,1,3.25,3.924,2.2,2.2,0,0,1,.132.34,1.321,1.321,0,0,1,.056.374,1.494,1.494,0,0,1-.376.976,1.291,1.291,0,0,1-1.051.451,1.348,1.348,0,0,1-1.277-.825,6.254,6.254,0,0,0-2.216-2.8A5.773,5.773,0,0,0,8.977,48.97a5.96,5.96,0,0,0-2.4.487,6.426,6.426,0,0,0-1.954,1.3,5.846,5.846,0,0,0-1.3,1.916,5.95,5.95,0,0,0-.469,2.346v8.64A5.739,5.739,0,0,0,3.343,66a6.022,6.022,0,0,0,1.315,1.915,6.368,6.368,0,0,0,1.952,1.3,5.9,5.9,0,0,0,2.367.489,5.768,5.768,0,0,0,3.529-1.109,6.3,6.3,0,0,0,2.179-2.835,1.064,1.064,0,0,1,.508-.6,1.543,1.543,0,0,1,.732-.187,1.3,1.3,0,0,1,1.033.45,1.458,1.458,0,0,1,.395.977,1.42,1.42,0,0,1-.113.563,8.5,8.5,0,0,1-1.315,2.254,9.37,9.37,0,0,1-1.9,1.765,8.694,8.694,0,0,1-2.366,1.165A9,9,0,0,1,5.5,71.861a8.912,8.912,0,0,1-2.856-1.915A9.263,9.263,0,0,1,.714,67.109,8.446,8.446,0,0,1,0,63.654Z" transform="translate(0 -34.672)"/>
    <path id="Path_127" data-name="Path 127" d="M80.984,74.488a1.41,1.41,0,0,1,1.428-1.428,1.366,1.366,0,0,1,.882.319,1.431,1.431,0,0,1,.507.845,6.724,6.724,0,0,1,4.131-1.315,11.2,11.2,0,0,1,2.084.337,5.083,5.083,0,0,1,1.409.658,1.389,1.389,0,0,1,.638,1.221,1.357,1.357,0,0,1-.412,1.031,1.412,1.412,0,0,1-1.015.4,1.473,1.473,0,0,1-.865-.264,4.016,4.016,0,0,0-1.99-.525,3.817,3.817,0,0,0-1.521.3,4.094,4.094,0,0,0-1.238.827,3.8,3.8,0,0,0-.846,1.2,4.027,4.027,0,0,0-.339,1.466V90.6a1.413,1.413,0,0,1-1.426,1.429,1.4,1.4,0,0,1-1-.415,1.344,1.344,0,0,1-.431-1.014V74.488Z" transform="translate(-60.89 -54.82)"/>
    <path id="Path_128" data-name="Path 128" d="M134.286,85.266a3.65,3.65,0,0,0,.319,1.5,4.362,4.362,0,0,0,.846,1.26,3.66,3.66,0,0,0,1.258.844,3.937,3.937,0,0,0,5.164-2.1,3.84,3.84,0,0,0,.3-1.5v-5.6a3.643,3.643,0,0,0-.32-1.5,4.335,4.335,0,0,0-.845-1.257,3.653,3.653,0,0,0-1.257-.846,4,4,0,0,0-1.522-.3,3.945,3.945,0,0,0-1.539.3,3.942,3.942,0,0,0-2.1,2.1,3.808,3.808,0,0,0-.3,1.5Zm-2.854-5.6a6.659,6.659,0,0,1,.526-2.628,6.588,6.588,0,0,1,1.465-2.16,7,7,0,0,1,2.159-1.446,6.885,6.885,0,0,1,5.278,0,6.755,6.755,0,0,1,2.16,1.446,7.021,7.021,0,0,1,1.464,2.16,6.468,6.468,0,0,1,.545,2.628v5.6a6.684,6.684,0,0,1-1.991,4.789A6.952,6.952,0,0,1,140.86,91.5a6.793,6.793,0,0,1-7.418-1.445,6.988,6.988,0,0,1-1.465-2.159,6.457,6.457,0,0,1-.545-2.63Z" transform="translate(-98.821 -54.82)"/>
    <path id="Path_129" data-name="Path 129" d="M197.729,79.67a6.553,6.553,0,0,1,2.047-4.807,7.307,7.307,0,0,1,2.216-1.427,6.909,6.909,0,0,1,2.686-.526c.174,0,.519.032,1.033.095a6.191,6.191,0,0,1,1.71.506,6.874,6.874,0,0,1,1.858,1.258,6.343,6.343,0,0,1,1.521,2.348,1.529,1.529,0,0,1,.113.526,1.434,1.434,0,0,1-2.235,1.183,1.306,1.306,0,0,1-.507-.658,4.165,4.165,0,0,0-1.5-1.764,3.831,3.831,0,0,0-2.142-.639,3.945,3.945,0,0,0-1.54.3,3.949,3.949,0,0,0-2.1,2.1,3.821,3.821,0,0,0-.3,1.5v5.6a3.639,3.639,0,0,0,.319,1.5,4.342,4.342,0,0,0,.846,1.26,3.672,3.672,0,0,0,1.257.844,3.955,3.955,0,0,0,1.521.3,3.908,3.908,0,0,0,3.644-2.4,1.609,1.609,0,0,1,.526-.657,1.317,1.317,0,0,1,.789-.244,1.352,1.352,0,0,1,1.012.432,1.4,1.4,0,0,1,.414.995,1.315,1.315,0,0,1-.113.526,6.853,6.853,0,0,1-1.8,2.516,7.368,7.368,0,0,1-2.047,1.239,5.844,5.844,0,0,1-1.69.414c-.464.022-.708.038-.733.038A6.646,6.646,0,0,1,201.9,91.5a6.729,6.729,0,0,1-2.16-1.445,6.992,6.992,0,0,1-1.465-2.159,6.449,6.449,0,0,1-.545-2.63v-5.6Z" transform="translate(-148.669 -54.82)"/>
    <path id="Path_130" data-name="Path 130" d="M262.941,51.781a1.408,1.408,0,0,1,1.427-1.427,1.4,1.4,0,0,1,.994.412,1.354,1.354,0,0,1,.433,1.015v10.63l7.36-5.934a1.3,1.3,0,0,1,.9-.338,1.384,1.384,0,0,1,.958.4,1.333,1.333,0,0,1,.432,1.032,1.472,1.472,0,0,1-.489,1.127l-6.047,4.883,7.587,9.162a1.282,1.282,0,0,1,.375.94,1.444,1.444,0,0,1-1.426,1.391,1.47,1.47,0,0,1-1.127-.49L266.7,65.34l-.9.715V73.64a1.416,1.416,0,0,1-1.427,1.429,1.4,1.4,0,0,1-1-.415,1.346,1.346,0,0,1-.431-1.014V51.781Z" transform="translate(-197.701 -37.86)"/>
    <path id="Path_131" data-name="Path 131" d="M328.878,81.134h7.888V79.67a3.647,3.647,0,0,0-.319-1.5,4.347,4.347,0,0,0-.846-1.257,3.648,3.648,0,0,0-1.258-.846,4,4,0,0,0-1.521-.3,3.943,3.943,0,0,0-1.539.3,3.936,3.936,0,0,0-2.1,2.1,3.829,3.829,0,0,0-.3,1.5v1.464Zm-2.854-1.464a6.69,6.69,0,0,1,1.99-4.788,7,7,0,0,1,2.16-1.446,6.883,6.883,0,0,1,5.277,0,6.72,6.72,0,0,1,2.16,1.446,6.982,6.982,0,0,1,1.464,2.16,6.451,6.451,0,0,1,.545,2.628v2.893a1.409,1.409,0,0,1-1.427,1.427h-9.315v1.277a3.635,3.635,0,0,0,.319,1.5,4.369,4.369,0,0,0,.845,1.26,3.669,3.669,0,0,0,1.258.844,3.949,3.949,0,0,0,1.52.3,3.906,3.906,0,0,0,3.606-2.292l.038-.113a1.319,1.319,0,0,1,.507-.657,1.407,1.407,0,0,1,.808-.244,1.356,1.356,0,0,1,1.014.432,1.405,1.405,0,0,1,.413.995,1.731,1.731,0,0,1-.189.677,6.767,6.767,0,0,1-2.441,2.93,6.521,6.521,0,0,1-3.756,1.128,6.651,6.651,0,0,1-2.629-.528,6.736,6.736,0,0,1-2.159-1.445,6.973,6.973,0,0,1-1.464-2.159,6.452,6.452,0,0,1-.545-2.63v-5.6Z" transform="translate(-245.131 -54.82)"/>
    <path id="Path_132" data-name="Path 132" d="M395.162,74.488a1.415,1.415,0,0,1,2.311-1.108,1.444,1.444,0,0,1,.507.845,6.722,6.722,0,0,1,4.131-1.315,11.251,11.251,0,0,1,2.085.337,5.081,5.081,0,0,1,1.408.658,1.388,1.388,0,0,1,.639,1.221,1.357,1.357,0,0,1-.414,1.031,1.41,1.41,0,0,1-1.014.4,1.466,1.466,0,0,1-.863-.264,4.021,4.021,0,0,0-1.991-.525,3.807,3.807,0,0,0-1.521.3,4.089,4.089,0,0,0-1.24.827,3.8,3.8,0,0,0-.845,1.2,4,4,0,0,0-.337,1.466V90.6a1.417,1.417,0,0,1-1.428,1.429,1.391,1.391,0,0,1-.994-.415,1.34,1.34,0,0,1-.433-1.014V74.488Z" transform="translate(-297.116 -54.82)"/>
    <path id="Path_133" data-name="Path 133" d="M459.258,85.03a5.038,5.038,0,0,1,.42,2.433,4.609,4.609,0,0,1-.621,2.167,5.267,5.267,0,0,1-1.485,1.658,6.717,6.717,0,0,1-2.225,1.031,9.766,9.766,0,0,1-2.8.317,10.477,10.477,0,0,1-2.355-.4,8.4,8.4,0,0,1-1.976-.9,5.049,5.049,0,0,1-1.673-1.692,2.027,2.027,0,0,1-.265-.92,1.338,1.338,0,0,1,.451-.977,1.436,1.436,0,0,1,1.048-.395,1.625,1.625,0,0,1,1.25.637,5.5,5.5,0,0,0,1.518,1.31,4.6,4.6,0,0,0,2.07.447,5.014,5.014,0,0,0,2.827-.639,2.363,2.363,0,0,0,1.254-1.784,2.325,2.325,0,0,0-1.1-2.055,5.02,5.02,0,0,0-2.292-.71l-.362-.017a11.278,11.278,0,0,1-2.6-.344,5.319,5.319,0,0,1-2.031-1A4.651,4.651,0,0,1,447,81.458a5.968,5.968,0,0,1-.436-2.576,4.8,4.8,0,0,1,.545-2.156,5.152,5.152,0,0,1,1.388-1.66,6.134,6.134,0,0,1,2.077-1.037,8.6,8.6,0,0,1,2.613-.319,9.087,9.087,0,0,1,2.2.393,7.579,7.579,0,0,1,1.842.9,4.873,4.873,0,0,1,1.558,1.69,2.118,2.118,0,0,1,.246.919,1.384,1.384,0,0,1-.422.979,1.3,1.3,0,0,1-.98.4,1.482,1.482,0,0,1-1.164-.635,5.207,5.207,0,0,0-1.415-1.308,4.012,4.012,0,0,0-1.928-.445,4.43,4.43,0,0,0-2.639.644,2.07,2.07,0,0,0-1.028,1.707,2.213,2.213,0,0,0,.9,2.016,4.812,4.812,0,0,0,2.646.69,9.63,9.63,0,0,1,2.653.422,6.467,6.467,0,0,1,2.16,1.134,5.369,5.369,0,0,1,1.44,1.82" transform="translate(-335.548 -55.42)"/>
    <path id="Path_134" data-name="Path 134" d="M338.619,173.975a1.733,1.733,0,0,0,.148.711,1.86,1.86,0,0,0,.4.582,1.946,1.946,0,0,0,.593.392,1.808,1.808,0,0,0,1.439,0,1.975,1.975,0,0,0,.587-.392,1.769,1.769,0,0,0,.392-.582,1.792,1.792,0,0,0,.142-.711v-2.618a1.755,1.755,0,0,0-.147-.711,1.843,1.843,0,0,0-.4-.58,1.979,1.979,0,0,0-.586-.394,1.747,1.747,0,0,0-.71-.146,1.817,1.817,0,0,0-.729.146,1.958,1.958,0,0,0-.592.394,1.766,1.766,0,0,0-.392.58,1.793,1.793,0,0,0-.142.711v2.618Zm-.865-2.618a2.545,2.545,0,0,1,.217-1.046,2.86,2.86,0,0,1,.58-.86,2.658,2.658,0,0,1,.86-.581,2.686,2.686,0,0,1,1.064-.209,2.619,2.619,0,0,1,1.047.209,2.743,2.743,0,0,1,.859.581,2.818,2.818,0,0,1,.585.86,2.548,2.548,0,0,1,.217,1.046v2.618a2.55,2.55,0,0,1-.217,1.047,2.85,2.85,0,0,1-.579.859,2.72,2.72,0,0,1-2.965.581,2.708,2.708,0,0,1-.865-.581,2.793,2.793,0,0,1-.586-.859,2.545,2.545,0,0,1-.217-1.047v-2.618Z" transform="translate(-253.951 -126.813)" fill="#86c240"/>
    <path id="Path_135" data-name="Path 135" d="M394.078,170.1a.429.429,0,0,1,.433-.433h3.947a.427.427,0,0,1,.433.433.43.43,0,0,1-.125.3.414.414,0,0,1-.308.13h-3.516V173.1h2.837a.429.429,0,0,1,.433.433.424.424,0,0,1-.126.3.408.408,0,0,1-.307.13h-2.837v2.345h3.516a.428.428,0,0,1,.433.433.429.429,0,0,1-.125.3.416.416,0,0,1-.308.131h-3.947a.419.419,0,0,1-.3-.127.405.405,0,0,1-.131-.306Z" transform="translate(-296.301 -127.569)" fill="#86c240"/>
    <path id="Path_136" data-name="Path 136" d="M446.884,170.531a.43.43,0,0,1-.307-.733.406.406,0,0,1,.307-.132h4.564a.43.43,0,0,1,.433.433.424.424,0,0,1-.127.3.408.408,0,0,1-.307.13h-1.854v6.26a.43.43,0,0,1-.735.306.408.408,0,0,1-.13-.306v-6.26Z" transform="translate(-335.679 -127.569)" fill="#86c240"/>
    <path id="Path_137" data-name="Path 137" d="M476.213,176.807a.428.428,0,1,1-.857,0v-2.515l-.01-.108-.062-.073a.262.262,0,0,1-.024-.029l-2.425-3.786a.425.425,0,0,1,.685-.5l.035.049,2.231,3.479,2.242-3.492a.425.425,0,0,1,.712.462l-2.426,3.784a.477.477,0,0,1-.038.046l-.062.073v2.609Z" transform="translate(-355.466 -127.554)" fill="#86c240"/>
    <path id="Path_138" data-name="Path 138" d="M420.771,176.794a.426.426,0,0,0,.065.228.458.458,0,0,0,.38.2.428.428,0,0,0,.428-.428v-.132l0-.012v-2.712h1.659l2.383,3.088a.41.41,0,0,0,.58.084l.041-.025a.386.386,0,0,0,.143-.257.39.39,0,0,0-.081-.305l-2-2.6.359-.108a2.132,2.132,0,0,0,.725-.363,2.154,2.154,0,0,0-1.32-3.827h-2.918a.384.384,0,0,0-.438.413v6.581Zm1.075-3.687h-.258v-2.643l2.511,0a1.322,1.322,0,0,1,.012,2.644h-2.264Z" transform="translate(-316.371 -127.541)" fill="#86c240"/>
    <path id="Path_139" data-name="Path 139" d="M308.9,176.794a.427.427,0,0,0,.066.228.458.458,0,0,0,.38.2.428.428,0,0,0,.428-.428v-2.856h1.659l2.383,3.088a.394.394,0,0,0,.274.164.389.389,0,0,0,.306-.08l.041-.025a.408.408,0,0,0,.061-.562l-2-2.6.359-.108a2.126,2.126,0,0,0,.725-.363,2.154,2.154,0,0,0-1.32-3.827h-2.918a.384.384,0,0,0-.438.413v6.581Zm1.075-3.687h-.258v-2.643l2.511,0a1.322,1.322,0,0,1,.012,2.644h-2.264Z" transform="translate(-232.254 -127.541)" fill="#86c240"/>
    <path id="Path_140" data-name="Path 140" d="M283.408,173.938a2.679,2.679,0,0,0,1.418-.481,2.154,2.154,0,0,0-1.32-3.827h-2.918a.384.384,0,0,0-.438.413v6.581l0,.17a.429.429,0,0,0,.065.228.458.458,0,0,0,.38.2.428.428,0,0,0,.428-.428v-2.856h2.387m-2.186-.83h-.258v-2.643l2.511,0a1.322,1.322,0,0,1,.012,2.644h-2.265Z" transform="translate(-210.637 -127.542)" fill="#86c240"/>
    <path id="Path_141" data-name="Path 141" d="M369.408,173.938a2.679,2.679,0,0,0,1.418-.481,2.154,2.154,0,0,0-1.32-3.827h-2.918a.384.384,0,0,0-.438.413v6.581l0,.17a.429.429,0,0,0,.066.228.458.458,0,0,0,.38.2.428.428,0,0,0,.428-.428v-2.856h2.387m-2.186-.83h-.258v-2.643l2.511,0a1.322,1.322,0,0,1,.012,2.644h-2.265Z" transform="translate(-275.299 -127.542)" fill="#86c240"/>
  </g>
</svg>
