<svg xmlns="http://www.w3.org/2000/svg" width="23" height="24" viewBox="0 0 23 24"><g transform="translate(-1008 -1072.882)"><path d="M1026.5,1096.882h-14a.5.5,0,0,1-.5-.5v-21a.5.5,0,0,1,.362-.481l7-2a.517.517,0,0,1,.276,0l7,2a.5.5,0,0,1,.362.481v21A.5.5,0,0,1,1026.5,1096.882Zm-13.5-1h13v-20.123l-6.5-1.857-6.5,1.857Z" fill="#84bf41"/><path d="M1016.5,1079.882h-2a.5.5,0,0,1-.5-.5v-2a.5.5,0,0,1,.5-.5h2a.5.5,0,0,1,.5.5v2A.5.5,0,0,1,1016.5,1079.882Zm-1.5-1h1v-1h-1Z" fill="#84bf41"/><path d="M1020.5,1079.882h-2a.5.5,0,0,1-.5-.5v-2a.5.5,0,0,1,.5-.5h2a.5.5,0,0,1,.5.5v2A.5.5,0,0,1,1020.5,1079.882Zm-1.5-1h1v-1h-1Z" fill="#84bf41"/><path d="M1024.5,1079.882h-2a.5.5,0,0,1-.5-.5v-2a.5.5,0,0,1,.5-.5h2a.5.5,0,0,1,.5.5v2A.5.5,0,0,1,1024.5,1079.882Zm-1.5-1h1v-1h-1Z" fill="#84bf41"/><path d="M1016.5,1083.882h-2a.5.5,0,0,1-.5-.5v-2a.5.5,0,0,1,.5-.5h2a.5.5,0,0,1,.5.5v2A.5.5,0,0,1,1016.5,1083.882Zm-1.5-1h1v-1h-1Z" fill="#84bf41"/><path d="M1020.5,1083.882h-2a.5.5,0,0,1-.5-.5v-2a.5.5,0,0,1,.5-.5h2a.5.5,0,0,1,.5.5v2A.5.5,0,0,1,1020.5,1083.882Zm-1.5-1h1v-1h-1Z" fill="#84bf41"/><path d="M1024.5,1083.882h-2a.5.5,0,0,1-.5-.5v-2a.5.5,0,0,1,.5-.5h2a.5.5,0,0,1,.5.5v2A.5.5,0,0,1,1024.5,1083.882Zm-1.5-1h1v-1h-1Z" fill="#84bf41"/><path d="M1016.5,1087.882h-2a.5.5,0,0,1-.5-.5v-2a.5.5,0,0,1,.5-.5h2a.5.5,0,0,1,.5.5v2A.5.5,0,0,1,1016.5,1087.882Zm-1.5-1h1v-1h-1Z" fill="#84bf41"/><path d="M1020.5,1087.882h-2a.5.5,0,0,1-.5-.5v-2a.5.5,0,0,1,.5-.5h2a.5.5,0,0,1,.5.5v2A.5.5,0,0,1,1020.5,1087.882Zm-1.5-1h1v-1h-1Z" fill="#84bf41"/><path d="M1024.5,1087.882h-2a.5.5,0,0,1-.5-.5v-2a.5.5,0,0,1,.5-.5h2a.5.5,0,0,1,.5.5v2A.5.5,0,0,1,1024.5,1087.882Zm-1.5-1h1v-1h-1Z" fill="#84bf41"/><path d="M1016.5,1091.882h-2a.5.5,0,0,1-.5-.5v-2a.5.5,0,0,1,.5-.5h2a.5.5,0,0,1,.5.5v2A.5.5,0,0,1,1016.5,1091.882Zm-1.5-1h1v-1h-1Z" fill="#84bf41"/><path d="M1020.5,1091.882h-2a.5.5,0,0,1-.5-.5v-2a.5.5,0,0,1,.5-.5h2a.5.5,0,0,1,.5.5v2A.5.5,0,0,1,1020.5,1091.882Zm-1.5-1h1v-1h-1Z" fill="#84bf41"/><path d="M1024.5,1091.882h-2a.5.5,0,0,1-.5-.5v-2a.5.5,0,0,1,.5-.5h2a.5.5,0,0,1,.5.5v2A.5.5,0,0,1,1024.5,1091.882Zm-1.5-1h1v-1h-1Z" fill="#84bf41"/><path d="M1022.5,1096.882h-6a.5.5,0,0,1-.5-.5v-3a.5.5,0,0,1,.5-.5h6a.5.5,0,0,1,.5.5v3A.5.5,0,0,1,1022.5,1096.882Zm-5.5-1h5v-2h-5Z" fill="#84bf41"/><path d="M1012.5,1096.882h-4a.5.5,0,0,1-.5-.5v-19a.5.5,0,0,1,.5-.5h4a.5.5,0,0,1,.5.5v19A.5.5,0,0,1,1012.5,1096.882Zm-3.5-1h3v-18h-3Z" fill="#84bf41"/><path d="M1030.5,1096.882h-4a.5.5,0,0,1-.5-.5v-19a.5.5,0,0,1,.5-.5h4a.5.5,0,0,1,.5.5v19A.5.5,0,0,1,1030.5,1096.882Zm-3.5-1h3v-18h-3Z" fill="#84bf41"/><path d="M1012.5,1079.882h-2a.5.5,0,0,1,0-1h2a.5.5,0,0,1,0,1Z" fill="#84bf41"/><path d="M1012.5,1082.882h-2a.5.5,0,0,1,0-1h2a.5.5,0,0,1,0,1Z" fill="#84bf41"/><path d="M1012.5,1085.882h-2a.5.5,0,0,1,0-1h2a.5.5,0,0,1,0,1Z" fill="#84bf41"/><path d="M1012.5,1088.882h-2a.5.5,0,0,1,0-1h2a.5.5,0,0,1,0,1Z" fill="#84bf41"/><path d="M1012.5,1091.882h-2a.5.5,0,0,1,0-1h2a.5.5,0,0,1,0,1Z" fill="#84bf41"/><path d="M1012.5,1094.882h-2a.5.5,0,0,1,0-1h2a.5.5,0,0,1,0,1Z" fill="#84bf41"/><path d="M1028.5,1079.882h-2a.5.5,0,0,1,0-1h2a.5.5,0,0,1,0,1Z" fill="#84bf41"/><path d="M1028.5,1082.882h-2a.5.5,0,0,1,0-1h2a.5.5,0,0,1,0,1Z" fill="#84bf41"/><path d="M1028.5,1085.882h-2a.5.5,0,0,1,0-1h2a.5.5,0,0,1,0,1Z" fill="#84bf41"/><path d="M1028.5,1088.882h-2a.5.5,0,0,1,0-1h2a.5.5,0,0,1,0,1Z" fill="#84bf41"/><path d="M1028.5,1091.882h-2a.5.5,0,0,1,0-1h2a.5.5,0,0,1,0,1Z" fill="#84bf41"/><path d="M1028.5,1094.882h-2a.5.5,0,0,1,0-1h2a.5.5,0,0,1,0,1Z" fill="#84bf41"/></g></svg>