<svg xmlns="http://www.w3.org/2000/svg" width="22" height="18.999" viewBox="0 0 22 18.999"><g transform="translate(-237 -2374.003)"><path d="M258.5,2393h-21a.5.5,0,0,1-.5-.5v-18a.5.5,0,0,1,.309-.462.5.5,0,0,1,.544.108l6.147,6.147V2374.5a.5.5,0,0,1,.853-.354l6.147,6.147V2374.5a.5.5,0,0,1,.853-.354l7,7a.5.5,0,0,1,.147.354v11A.5.5,0,0,1,258.5,2393Zm-20.5-1h20v-10.293l-6-6v5.793a.5.5,0,0,1-.854.353L245,2375.709v5.793a.5.5,0,0,1-.854.353L238,2375.709Z" fill="#84bf41"/><path d="M243.5,2388h-4a.5.5,0,0,1-.5-.5v-4a.5.5,0,0,1,.5-.5h4a.5.5,0,0,1,.5.5v4A.5.5,0,0,1,243.5,2388Zm-3.5-1h3v-3h-3Z" fill="#84bf41"/><path d="M256.5,2388h-4a.5.5,0,0,1-.5-.5v-4a.5.5,0,0,1,.5-.5h4a.5.5,0,0,1,.5.5v4A.5.5,0,0,1,256.5,2388Zm-3.5-1h3v-3h-3Z" fill="#84bf41"/><path d="M250.5,2393h-5a.5.5,0,0,1-.5-.5v-9a.5.5,0,0,1,.5-.5h5a.5.5,0,0,1,.5.5v9A.5.5,0,0,1,250.5,2393Zm-4.5-1h4v-8h-4Z" fill="#84bf41"/></g></svg>