<svg xmlns="http://www.w3.org/2000/svg" width="113.44" height="14.043" viewBox="0 0 113.44 14.043"><g opacity="0.8"><path d="M75.19,3.05h8.391V5.255H77.616V7.6h5.258V9.8H77.616V14.07H75.19Z" transform="translate(-58.714 -2.578)" fill="#fff"/><path d="M111.64,19.963V19.93c0-1.842,1.4-2.691,3.4-2.691a5.986,5.986,0,0,1,2.072.345v-.14c0-.992-.612-1.542-1.809-1.542a6.216,6.216,0,0,0-2.33.46l-.6-1.826a7.434,7.434,0,0,1,3.26-.681,3.9,3.9,0,0,1,2.85.944,3.764,3.764,0,0,1,.921,2.691v4.9h-2.318v-.9a3.248,3.248,0,0,1-2.551,1.07A2.624,2.624,0,0,1,111.64,19.963Zm5.5-.55v-.426a3.711,3.711,0,0,0-1.526-.315c-1.024,0-1.653.41-1.653,1.165v.037c0,.645.534,1.022,1.305,1.022C116.38,20.89,117.135,20.278,117.135,19.412Z" transform="translate(-86.772 -10.895)" fill="#fff"/><path d="M152.6,11.39v1.1H150.21V1H152.6V5.266a3.1,3.1,0,0,1,2.629-1.381c1.968,0,3.84,1.542,3.84,4.374v.03c0,2.818-1.842,4.374-3.84,4.374A3.234,3.234,0,0,1,152.6,11.39Zm4.077-3.1v-.03a2.154,2.154,0,0,0-2.072-2.332,2.13,2.13,0,0,0-2.047,2.332v.03a2.075,2.075,0,1,0,4.118,0Z" transform="translate(-116.463 -1)" fill="#fff"/><path d="M192.27,13.727h2.392v1.7a2.608,2.608,0,0,1,2.693-1.858v2.5h-.127c-1.591,0-2.567.96-2.567,2.974v3.117H192.27Z" transform="translate(-148.84 -10.672)" fill="#fff"/><path d="M217.64,1h2.519V3.125H217.64Zm.062,3.055H220.1v8.437H217.7Z" transform="translate(-168.37 -1)" fill="#fff"/><path d="M231.519,18v-.032a4.333,4.333,0,0,1,4.425-4.392,4.146,4.146,0,0,1,3.368,1.418l-1.466,1.575a2.45,2.45,0,0,0-1.92-.921,2.157,2.157,0,0,0-2.047,2.3v.03a2.161,2.161,0,0,0,2.141,2.33,2.672,2.672,0,0,0,1.936-.9l1.4,1.4a4.253,4.253,0,0,1-3.453,1.542A4.31,4.31,0,0,1,231.519,18Z" transform="translate(-179.053 -10.681)" fill="#fff"/><path d="M287.12,3.05h4.3c3.453,0,5.857,2.378,5.857,5.479v.035a5.517,5.517,0,0,1-5.857,5.509h-4.3Zm2.424,2.189v6.644h1.874a3.141,3.141,0,0,0,3.322-3.292V8.564a3.165,3.165,0,0,0-3.322-3.322Z" transform="translate(-221.855 -2.578)" fill="#fff"/><path d="M334.92,1h2.518V3.125H334.92Zm.062,3.055h2.394v8.437h-2.394Z" transform="translate(-258.65 -1)" fill="#fff"/><path d="M349.343,23.876l.817-1.8a5.507,5.507,0,0,0,2.85.774c1.637,0,2.408-.787,2.408-2.3v-.4a3.3,3.3,0,0,1-2.763,1.37,3.705,3.705,0,0,1-3.746-3.934v-.032a3.714,3.714,0,0,1,3.746-3.937,3.437,3.437,0,0,1,2.726,1.259V13.77h2.392V20.3a4.527,4.527,0,0,1-1.07,3.322,4.917,4.917,0,0,1-3.628,1.133A8,8,0,0,1,349.343,23.876Zm6.075-6.3v-.032a1.952,1.952,0,0,0-2.072-1.952,1.932,1.932,0,0,0-2.047,1.952v.032a1.928,1.928,0,0,0,2.047,1.952A1.959,1.959,0,0,0,355.418,17.58Z" transform="translate(-269.42 -10.715)" fill="#fff"/><path d="M392.16,1h2.519V3.125H392.16Zm.062,3.055h2.394v8.437h-2.394Z" transform="translate(-302.713 -1)" fill="#fff"/><path d="M407.526,13.1v-4H406.52V7.057h1.006V4.9h2.394V7.057H411.9V9.1H409.92v3.605c0,.55.23.817.771.817a2.443,2.443,0,0,0,1.181-.3v1.922a3.53,3.53,0,0,1-1.89.488C408.518,15.637,407.526,15.052,407.526,13.1Z" transform="translate(-313.767 -4.002)" fill="#fff"/><path d="M432,19.976v-.032c0-1.842,1.4-2.691,3.4-2.691a6,6,0,0,1,2.072.345v-.14c0-.992-.615-1.542-1.812-1.542a6.215,6.215,0,0,0-2.33.46l-.6-1.826a7.443,7.443,0,0,1,3.276-.677,3.889,3.889,0,0,1,2.848.944,3.678,3.678,0,0,1,.921,2.691V22.4h-2.339v-.9a3.248,3.248,0,0,1-2.551,1.07A2.614,2.614,0,0,1,432,19.976Zm5.484-.55V19a3.7,3.7,0,0,0-1.526-.315c-1.022,0-1.653.41-1.653,1.165v.037c0,.645.534,1.022,1.308,1.022C436.728,20.9,437.484,20.292,437.484,19.426Z" transform="translate(-333.381 -10.908)" fill="#fff"/><path d="M470.32,1h2.394V12.492H470.32Z" transform="translate(-362.88 -1)" fill="#fff"/><path d="M485.3,40h2.551v2.514H485.3Z" transform="translate(-374.411 -31.022)" fill="#fff"/><path d="M18.387,2.09v11H9.57v-4.4h2.205v2.2h4.406v-2.2h-4.4v-2.2h4.4V2.09Z" transform="translate(-7.367 -1.609)" fill="#fff" opacity="0.63"/><path d="M2.2,4.291v2.2H4.411v2.2H2.2v4.4H0v-11H8.819v2.2Z" transform="translate(0 -1.609)" fill="#fff"/></g></svg>