<svg xmlns="http://www.w3.org/2000/svg" width="220" height="90" viewBox="0 0 220 90"><g transform="translate(-346 -1719)"><rect width="220" height="90" rx="3" transform="translate(346 1719)" fill="#fff"/><text transform="translate(412 1748)" font-size="14" font-family="SofiaProMedium, Sofia Pro"><tspan x="0" y="0">Google Rating</tspan></text><text transform="translate(412 1771)" font-size="20" font-family="SofiaProSemiBold, Sofia Pro" letter-spacing="-0.03em"><tspan x="0" y="0">4.9</tspan></text><text transform="translate(412 1790)" fill="#949494" font-size="14" font-family="SofiaProMedium, Sofia Pro" letter-spacing="-0.03em"><tspan x="0" y="0">Based on 136 Reviews </tspan></text><path d="M9.463,1.318l2.924,5.925,6.539.95-4.732,4.612,1.117,6.513L9.463,16.243,3.615,19.318l1.117-6.513L0,8.194l6.539-.95Z" transform="translate(445.765 1753.682)" fill="#ec971f"/><path d="M9.463,1.318l2.924,5.925,6.539.95-4.732,4.612,1.117,6.513L9.463,16.243,3.615,19.318l1.117-6.513L0,8.194l6.539-.95Z" transform="translate(465.765 1753.682)" fill="#ec971f"/><path d="M9.463,1.318l2.924,5.925,6.539.95-4.732,4.612,1.117,6.513L9.463,16.243,3.615,19.318l1.117-6.513L0,8.194l6.539-.95Z" transform="translate(485.765 1753.682)" fill="#ec971f"/><path d="M9.463,1.318l2.924,5.925,6.539.95-4.732,4.612,1.117,6.513L9.463,16.243,3.615,19.318l1.117-6.513L0,8.194l6.539-.95Z" transform="translate(505.765 1753.682)" fill="#ec971f"/><g transform="translate(525.765 1753.682)" fill="none"><path d="M9.463,1.318l2.924,5.925,6.539.95-4.732,4.612,1.117,6.513L9.463,16.243,3.615,19.318l1.117-6.513L0,8.194l6.539-.95Z" stroke="none"/><path d="M 9.463204383850098 3.577625274658203 L 7.435699462890625 7.685730934143066 L 7.203039169311523 8.157151222229004 L 6.682799339294434 8.232760429382324 L 2.149002075195313 8.891720771789551 L 5.429609298706055 12.08926105499268 L 5.806109428405762 12.45623111724854 L 5.717239379882813 12.97442054748535 L 4.942794799804688 17.49003219604492 L 8.997929573059082 15.3582010269165 L 9.463269233703613 15.11357116699219 L 9.928609848022461 15.35821056365967 L 13.98335361480713 17.48996734619141 L 13.20891952514648 12.97442054748535 L 13.12004947662354 12.45623111724854 L 13.49654960632324 12.08926105499268 L 16.77715682983398 8.891720771789551 L 12.24335956573486 8.232760429382324 L 11.72308921813965 8.157140731811523 L 11.49043941497803 7.685690879821777 L 9.463204383850098 3.577625274658203 M 9.463259696960449 1.318000793457031 L 12.3871898651123 7.243161201477051 L 18.9261589050293 8.193560600280762 L 14.19452953338623 12.80538082122803 L 15.31147003173828 19.31800079345703 L 9.463259696960449 16.24334144592285 L 3.614689826965332 19.31800079345703 L 4.731629371643066 12.80538082122803 L 0 8.193560600280762 L 6.538969039916992 7.243161201477051 L 9.463259696960449 1.318000793457031 Z" stroke="none" fill="#ec971f"/></g><path d="M-6350.5-4757.512l-4.733-4.613,6.54-.95,2.924-5.925,2.924,5.925,2.848.414v4.135l-1.041,1.014,1.041,6.066v.406l-5.771-3.034-5.848,3.074Z" transform="translate(6881 6524)" fill="#ec971f"/><g transform="translate(360 1743)"><path d="M9.308,152.307l-1.462,5.458-5.343.113a21.037,21.037,0,0,1-.155-19.61h0l4.757.872,2.084,4.729a12.533,12.533,0,0,0,.118,8.438Z" transform="translate(0 -126.926)" fill="#f4b911"/><path d="M281.8,208.176a20.992,20.992,0,0,1-7.486,20.3h0l-5.992-.306-.848-5.294a12.516,12.516,0,0,0,5.385-6.391H261.628v-8.308H281.8Z" transform="translate(-240.166 -191.099)" fill="#4e77b8"/><path d="M62.152,321.4h0a21.007,21.007,0,0,1-31.644-6.425l6.805-5.571a12.489,12.489,0,0,0,18,6.395Z" transform="translate(-28.006 -284.028)" fill="#27a64d"/><path d="M60.68,4.835l-6.8,5.57a12.488,12.488,0,0,0-18.411,6.539l-6.841-5.6h0A21,21,0,0,1,60.68,4.835Z" transform="translate(-26.276)" fill="#e7402b"/></g></g></svg>