<svg xmlns="http://www.w3.org/2000/svg" width="283" height="90" viewBox="0 0 283 90"><g transform="translate(-346 -446)"><rect width="283" height="90" rx="3" transform="translate(346 446)" fill="#fff"/><text transform="translate(422 475)" font-size="14" font-family="SegoeUI, Segoe UI"><tspan x="0" y="0">Google Rating</tspan></text><text transform="translate(422 498)" font-size="20" font-family="SegoeUI, Segoe UI" letter-spacing="-0.03em"><tspan x="0" y="0">4.9</tspan></text><text transform="translate(422 517)" fill="#949494" font-size="14" font-family="SegoeUI, Segoe UI" letter-spacing="-0.03em"><tspan x="0" y="0">Based on 136 Reviews </tspan></text><path d="M9.463,1.318l2.924,5.925,6.539.95-4.732,4.612,1.117,6.513L9.463,16.243,3.615,19.318l1.117-6.513L0,8.194l6.539-.95Z" transform="translate(455.765 480.682)" fill="#ec971f"/><path d="M9.463,1.318l2.924,5.925,6.539.95-4.732,4.612,1.117,6.513L9.463,16.243,3.615,19.318l1.117-6.513L0,8.194l6.539-.95Z" transform="translate(475.765 480.682)" fill="#ec971f"/><path d="M9.463,1.318l2.924,5.925,6.539.95-4.732,4.612,1.117,6.513L9.463,16.243,3.615,19.318l1.117-6.513L0,8.194l6.539-.95Z" transform="translate(495.765 480.682)" fill="#ec971f"/><path d="M9.463,1.318l2.924,5.925,6.539.95-4.732,4.612,1.117,6.513L9.463,16.243,3.615,19.318l1.117-6.513L0,8.194l6.539-.95Z" transform="translate(515.765 480.682)" fill="#ec971f"/><g transform="translate(535.765 480.682)" fill="none"><path d="M9.463,1.318l2.924,5.925,6.539.95-4.732,4.612,1.117,6.513L9.463,16.243,3.615,19.318l1.117-6.513L0,8.194l6.539-.95Z" stroke="none"/><path d="M 9.463204383850098 3.577625274658203 L 7.435699462890625 7.685730934143066 L 7.203039169311523 8.157151222229004 L 6.682799339294434 8.232760429382324 L 2.149002075195313 8.891720771789551 L 5.429609298706055 12.08926105499268 L 5.806109428405762 12.45623111724854 L 5.717239379882813 12.97442054748535 L 4.942794799804688 17.49003219604492 L 8.997929573059082 15.3582010269165 L 9.463269233703613 15.11357116699219 L 9.928609848022461 15.35821056365967 L 13.98335361480713 17.48996734619141 L 13.20891952514648 12.97442054748535 L 13.12004947662354 12.45623111724854 L 13.49654960632324 12.08926105499268 L 16.77715682983398 8.891720771789551 L 12.24335956573486 8.232760429382324 L 11.72308921813965 8.157140731811523 L 11.49043941497803 7.685690879821777 L 9.463204383850098 3.577625274658203 M 9.463259696960449 1.318000793457031 L 12.3871898651123 7.243161201477051 L 18.9261589050293 8.193560600280762 L 14.19452953338623 12.80538082122803 L 15.31147003173828 19.31800079345703 L 9.463259696960449 16.24334144592285 L 3.614689826965332 19.31800079345703 L 4.731629371643066 12.80538082122803 L 0 8.193560600280762 L 6.538969039916992 7.243161201477051 L 9.463259696960449 1.318000793457031 Z" stroke="none" fill="#ec971f"/></g><path d="M-6350.5-4757.512l-4.733-4.613,6.54-.95,2.924-5.925,2.924,5.925,2.848.414v4.135l-1.041,1.014,1.041,6.066v.406l-5.771-3.034-5.848,3.074Z" transform="translate(6891 5251)" fill="#ec971f"/><g transform="translate(360 465)"><path d="M11.524,155.649l-1.81,6.757-6.616.14a26.045,26.045,0,0,1-.191-24.279h0l5.89,1.08,2.58,5.854a15.517,15.517,0,0,0,.146,10.447Z" transform="translate(0 -124.225)" fill="#f4b911"/><path d="M286.6,208.176a25.99,25.99,0,0,1-9.268,25.133h0l-7.419-.379-1.05-6.554a15.5,15.5,0,0,0,6.667-7.913h-13.9V208.176H286.6Z" transform="translate(-235.056 -187.033)" fill="#4e77b8"/><path d="M69.686,324.259h0a26.008,26.008,0,0,1-39.179-7.954l8.426-6.9a15.463,15.463,0,0,0,22.283,7.917Z" transform="translate(-27.41 -277.985)" fill="#27a64d"/><path d="M68.313,5.986l-8.423,6.9a15.461,15.461,0,0,0-22.794,8.1l-8.47-6.934h0A26.005,26.005,0,0,1,68.313,5.986Z" transform="translate(-25.717)" fill="#e7402b"/></g></g></svg>