<svg xmlns="http://www.w3.org/2000/svg" width="121.908" height="37" viewBox="0 0 121.908 37"><g transform="translate(-34 -285)"><text transform="translate(70 295)" font-size="10" font-family="SofiaProMedium, Sofia Pro"><tspan x="0" y="0">Google Rating</tspan></text><text transform="translate(70 310)" font-size="14" font-family="SofiaProSemiBold, Sofia Pro" letter-spacing="-0.03em"><tspan x="0" y="0">4.9</tspan></text><text transform="translate(70 320)" fill="#949494" font-size="8" font-family="SofiaProMedium, Sofia Pro" letter-spacing="-0.03em"><tspan x="0" y="0">Based on 136 Reviews </tspan></text><path d="M5.753,1.318l1.778,3.6,3.975.578L8.63,8.3l.679,3.959L5.753,10.392,2.2,12.261,2.877,8.3,0,5.5,3.975,4.92Z" transform="translate(95.765 297.682)" fill="#ec971f"/><path d="M5.753,1.318l1.778,3.6,3.975.578L8.63,8.3l.679,3.959L5.753,10.392,2.2,12.261,2.877,8.3,0,5.5,3.975,4.92Z" transform="translate(107.924 297.682)" fill="#ec971f"/><path d="M5.753,1.318l1.778,3.6,3.975.578L8.63,8.3l.679,3.959L5.753,10.392,2.2,12.261,2.877,8.3,0,5.5,3.975,4.92Z" transform="translate(120.083 297.682)" fill="#ec971f"/><path d="M5.753,1.318l1.778,3.6,3.975.578L8.63,8.3l.679,3.959L5.753,10.392,2.2,12.261,2.877,8.3,0,5.5,3.975,4.92Z" transform="translate(132.242 297.682)" fill="#ec971f"/><g transform="translate(144.401 297.682)" fill="none"><path d="M5.753,1.318l1.778,3.6,3.975.578L8.63,8.3l.679,3.959L5.753,10.392,2.2,12.261,2.877,8.3,0,5.5,3.975,4.92Z" stroke="none"/><path d="M 5.753194332122803 2.447822570800781 L 4.423759460449219 5.141509056091309 L 4.307429313659668 5.377208709716797 L 4.047309398651123 5.415019035339355 L 1.074501037597656 5.847099304199219 L 3.22559928894043 7.943728923797607 L 3.413849830627441 8.127218246459961 L 3.369409561157227 8.386308670043945 L 2.861606597900391 11.34718036651611 L 5.520559310913086 9.949338912963867 L 5.75322961807251 9.827018737792969 L 5.985889434814453 9.949348449707031 L 8.644607543945313 11.34715270996094 L 8.136809349060059 8.386308670043945 L 8.092369079589844 8.127218246459961 L 8.280619621276855 7.943728923797607 L 10.43171787261963 5.847099304199219 L 7.458909511566162 5.415019035339355 L 7.198779582977295 5.377208709716797 L 7.082449436187744 5.141478538513184 L 5.753194332122803 2.447822570800781 M 5.753219604492188 1.317998886108398 L 7.530829429626465 4.920218467712402 L 11.5062198638916 5.498019218444824 L 8.629609107971191 8.301788330078125 L 9.308659553527832 12.26115894317627 L 5.753219604492188 10.39190864562988 L 2.197559356689453 12.26115894317627 L 2.876609802246094 8.301788330078125 L -9.5367431640625e-07 5.498019218444824 L 3.97538948059082 4.920218467712402 L 5.753219604492188 1.317998886108398 Z" stroke="none" fill="#ec971f"/></g><path d="M2.877,6.984,0,4.179,3.976,3.6,5.754,0,7.531,3.6l1.731.252V6.367l-.633.616.633,3.688v.247L5.754,9.074,2.2,10.943Z" transform="translate(144.401 299)" fill="#ec971f"/><g transform="translate(34 289)"><path d="M6.649,148.3l-1.044,3.9-3.817.081a15.026,15.026,0,0,1-.11-14.007h0l3.4.623,1.489,3.378a8.952,8.952,0,0,0,.084,6.027Z" transform="translate(0 -130.166)" fill="#f4b911"/><path d="M276.036,208.176a14.994,14.994,0,0,1-5.347,14.5h0l-4.28-.218-.606-3.781a8.94,8.94,0,0,0,3.846-4.565h-8.021v-5.934h14.408Z" transform="translate(-246.298 -195.978)" fill="#4e77b8"/><path d="M53.111,317.976h0a15,15,0,0,1-22.6-4.589l4.861-3.979a8.921,8.921,0,0,0,12.855,4.568Z" transform="translate(-28.721 -291.28)" fill="#27a64d"/><path d="M51.521,3.453,46.662,7.432A8.92,8.92,0,0,0,33.511,12.1l-4.887-4h0a15,15,0,0,1,22.9-4.648Z" transform="translate(-26.947)" fill="#e7402b"/></g></g></svg>