<svg xmlns="http://www.w3.org/2000/svg" width="99.884" height="29.928" viewBox="0 0 99.884 29.928"><g transform="translate(-20 -20.017)"><g transform="translate(20 20.017)"><path d="M48.166,21.18c0,.013-.181.013-.181-.015a.8.8,0,0,0-.14-.5c-.155-.14-.364-.252-1.2-.252-.168,0-.264.014-.335.014a4.508,4.508,0,0,0-.042.853v1.791c0,1.371.071,1.539.168,1.582a1.717,1.717,0,0,0,.6.125c.028.015.028.182,0,.182H44.822c-.028,0-.028-.168,0-.182a1.713,1.713,0,0,0,.6-.125c.1-.042.155-.211.155-1.582V21.278a5.074,5.074,0,0,0-.029-.853c-.07,0-.209-.014-.378-.014-.8,0-1.021.083-1.2.252a1.042,1.042,0,0,0-.238.518c0,.028-.181,0-.181-.028.042-.378.083-.826.111-1.092,0-.013.015-.028.042-.028a17.466,17.466,0,0,0,2.224.084,8.988,8.988,0,0,0,2.267-.1c.029,0,.042.015.042.029A8.655,8.655,0,0,1,48.166,21.18Z" transform="translate(-26.013 -20.017)"/><path d="M54.143,24.981c-.028,0-.028-.168,0-.182a1.241,1.241,0,0,0,.531-.125c.1-.042.168-.211.168-1.582v-.448H52.03v.448c0,1.371.069,1.539.168,1.582a1.241,1.241,0,0,0,.531.125c.028.015.028.182.015.182h-2.1c-.015,0-.028-.168.014-.182a1.253,1.253,0,0,0,.532-.125c.1-.042.153-.211.153-1.582V22c0-1.372-.056-1.539-.153-1.581a1.444,1.444,0,0,0-.532-.14c-.042,0-.028-.169-.014-.169h2.1c.014,0,.014.169-.015.169a1.413,1.413,0,0,0-.531.14c-.1.042-.168.209-.168,1.581v.336h2.811V22c0-1.372-.069-1.539-.168-1.581a1.428,1.428,0,0,0-.531-.14c-.028,0-.028-.169,0-.169h2.084c.029,0,.029.169-.013.169a1.525,1.525,0,0,0-.532.14c-.083.042-.154.209-.154,1.581v1.092c0,1.371.071,1.539.154,1.582a1.322,1.322,0,0,0,.532.125c.042.015.042.182.013.182Z" transform="translate(-27.821 -20.041)"/><path d="M62.5,24.85c-.055.083-.1.14-.294.14-.475,0-1.035-.028-1.679-.028-.5,0-.812,0-1.357.013-.027,0-.027-.168,0-.182a1.186,1.186,0,0,0,.532-.125c.1-.042.168-.211.168-1.582V22c0-1.372-.071-1.539-.168-1.581a1.351,1.351,0,0,0-.532-.14c-.027,0-.027-.169,0-.169.6.015,1.553.015,2.058.015.643,0,1.008-.015,1.231-.028.042-.015.055.013.055.028-.027.252-.042.615-.083,1.008-.015.042-.2.028-.2-.015a.743.743,0,0,0-.154-.5c-.127-.127-.349-.2-.9-.2-.308,0-.517.015-.6.015a4.562,4.562,0,0,0-.028.812v1.049h.574c.741,0,.84-.168.882-.433.013-.028.2-.028.2,0-.013.209-.042,1.105-.042,1.3,0,.028-.2.028-.2,0a.609.609,0,0,0-.112-.405c-.071-.057-.182-.141-.742-.141h-.559v.477a3.149,3.149,0,0,0,.168,1.441c.1.084.2.141.658.141a1.15,1.15,0,0,0,.882-.266,1,1,0,0,0,.251-.518c.016-.042.154,0,.14.028A3.9,3.9,0,0,1,62.5,24.85Z" transform="translate(-29.996 -20.035)"/><path d="M72.728,24.678a2.327,2.327,0,0,1-1.539.349,2.581,2.581,0,0,1-2.771-2.448,2.619,2.619,0,0,1,2.756-2.561c.882,0,1.329.281,1.609.224.028-.013.042.015.042.028.015.265.028.671.028,1.077,0,.042-.2.028-.2-.013a1.073,1.073,0,0,0-.294-.6A1.865,1.865,0,0,0,71.09,20.3a1.826,1.826,0,0,0-1.9,2.07A2.174,2.174,0,0,0,71.2,24.72a1.468,1.468,0,0,0,1.218-.407,2.05,2.05,0,0,0,.322-.657c.015-.042.183,0,.183.028A3.37,3.37,0,0,1,72.728,24.678Z" transform="translate(-32.363 -20.018)"/><path d="M79.3,24.981c-.028,0-.028-.168,0-.182a1.244,1.244,0,0,0,.531-.125c.1-.042.169-.211.169-1.582v-.448H77.183v.448c0,1.371.07,1.539.169,1.582a1.244,1.244,0,0,0,.531.125c.028.015.028.182.015.182H75.8c-.015,0-.028-.168.013-.182a1.247,1.247,0,0,0,.532-.125c.1-.042.154-.211.154-1.582V22c0-1.372-.057-1.539-.154-1.581a1.434,1.434,0,0,0-.532-.14c-.041,0-.028-.169-.013-.169h2.1c.013,0,.013.169-.015.169a1.418,1.418,0,0,0-.531.14c-.1.042-.169.209-.169,1.581v.336H80V22c0-1.372-.07-1.539-.169-1.581a1.433,1.433,0,0,0-.531-.14c-.028,0-.028-.169,0-.169H81.38c.028,0,.028.169-.013.169a1.514,1.514,0,0,0-.532.14c-.084.042-.154.209-.154,1.581v1.092c0,1.371.07,1.539.154,1.582a1.315,1.315,0,0,0,.532.125c.041.015.041.182.013.182Z" transform="translate(-34.243 -20.041)"/><path d="M88.991,20.435c-.07.055-.14.2-.14,1.567v1.259a2.022,2.022,0,0,1-4.015.013V22c0-1.372-.07-1.539-.169-1.581a1.433,1.433,0,0,0-.531-.14c-.029,0-.029-.169,0-.169h2.126c.013,0,.028.169-.015.169a1.746,1.746,0,0,0-.56.14c-.1.042-.168.209-.168,1.581v1.078a1.425,1.425,0,0,0,1.539,1.539,1.309,1.309,0,0,0,1.4-1.455V22c0-1.372-.07-1.511-.14-1.567a1.311,1.311,0,0,0-.573-.154c-.029,0-.015-.169,0-.169H89.52c.029,0,.042.169,0,.169A1.09,1.09,0,0,0,88.991,20.435Z" transform="translate(-36.37 -20.041)"/><path d="M96.981,24.969A1.967,1.967,0,0,1,95.82,24.7a5.094,5.094,0,0,1-1.442-1.763,7.092,7.092,0,0,1-.8-.014v.168c0,1.371.072,1.539.169,1.582a2.076,2.076,0,0,0,.672.125c.028.015.028.182.013.182H92.2c-.028,0-.028-.168.015-.182a1.305,1.305,0,0,0,.531-.125c.084-.042.154-.211.154-1.582V22c0-1.372-.07-1.539-.154-1.581a1.52,1.52,0,0,0-.531-.14c-.042,0-.042-.169-.015-.169.351,0,.757.015,1.049.015s.589-.015.938-.015c1.162,0,1.819.617,1.819,1.232a1.751,1.751,0,0,1-.993,1.413c1.037,1.5,1.594,2,2.2,2h.225c.027-.013.055.169.042.169A2.83,2.83,0,0,1,96.981,24.969Zm-2.813-4.576c-.264,0-.433.042-.461.1A4.6,4.6,0,0,0,93.581,22c0,.448.03.5.072.545a.917.917,0,0,0,.6.127,1.013,1.013,0,0,0,.966-1.078C95.218,20.924,94.91,20.393,94.168,20.393Z" transform="translate(-38.428 -20.041)"/><path d="M103.349,24.678a2.326,2.326,0,0,1-1.539.349,2.581,2.581,0,0,1-2.772-2.448,2.62,2.62,0,0,1,2.757-2.561c.882,0,1.328.281,1.609.224a.03.03,0,0,1,.042.028c.014.265.028.671.028,1.077,0,.042-.2.028-.2-.013a1.068,1.068,0,0,0-.294-.6,1.867,1.867,0,0,0-1.274-.433,1.827,1.827,0,0,0-1.9,2.07,2.174,2.174,0,0,0,2.014,2.351,1.466,1.466,0,0,0,1.218-.407,2.034,2.034,0,0,0,.322-.657c.015-.042.182,0,.182.028A3.338,3.338,0,0,1,103.349,24.678Z" transform="translate(-40.181 -20.018)"/><path d="M109.84,24.981c-.028,0-.028-.168,0-.182a1.253,1.253,0,0,0,.532-.125c.1-.042.169-.211.169-1.582v-.448h-2.813v.448c0,1.371.069,1.539.168,1.582a1.249,1.249,0,0,0,.532.125c.028.015.028.182.013.182h-2.1c-.014,0-.028-.168.014-.182a1.262,1.262,0,0,0,.533-.125c.1-.042.152-.211.152-1.582V22c0-1.372-.055-1.539-.152-1.581a1.455,1.455,0,0,0-.533-.14c-.042,0-.028-.169-.014-.169h2.1c.016,0,.016.169-.013.169a1.423,1.423,0,0,0-.532.14c-.1.042-.168.209-.168,1.581v.336h2.813V22c0-1.372-.071-1.539-.169-1.581a1.444,1.444,0,0,0-.532-.14c-.028,0-.028-.169,0-.169h2.085c.028,0,.028.169-.014.169a1.5,1.5,0,0,0-.531.14c-.085.042-.154.209-.154,1.581v1.092c0,1.371.069,1.539.154,1.582a1.305,1.305,0,0,0,.531.125c.042.015.042.182.014.182Z" transform="translate(-42.042 -20.041)"/><path d="M120.412,25.028a2.485,2.485,0,0,1-2.589-2.448,2.645,2.645,0,0,1,2.686-2.561,2.486,2.486,0,0,1,2.588,2.449A2.643,2.643,0,0,1,120.412,25.028Zm-.057-4.7c-1.372,0-1.762,1.119-1.762,2.043a2.132,2.132,0,0,0,1.971,2.351c1.372,0,1.763-1.12,1.763-2.043A2.131,2.131,0,0,0,120.355,20.327Z" transform="translate(-44.977 -20.018)"/><path d="M129.318,21.115c0,.028-.2.028-.2-.028a.637.637,0,0,0-.153-.462,1.273,1.273,0,0,0-.951-.252,6.5,6.5,0,0,0-.672.028,7.59,7.59,0,0,0-.028.841v1.1h.547c.74,0,.839-.083.881-.35.014-.028.2-.014.2,0-.013.209-.042.966-.042,1.175,0,.015-.2.015-.2-.014a.5.5,0,0,0-.111-.364c-.07-.07-.182-.111-.742-.111h-.533v.406c0,1.371.071,1.539.169,1.582a2.082,2.082,0,0,0,.672.125c.028.015.028.182.013.182h-2.239c-.027,0-.027-.168.016-.182a1.3,1.3,0,0,0,.53-.125c.084-.042.155-.211.155-1.582V22c0-1.372-.071-1.581-.155-1.623a1.3,1.3,0,0,0-.53-.125c-.042-.015-.042-.141-.016-.141.6.015,1.6.015,2.085.015.659,0,1.1-.015,1.344-.028.028-.015.042.013.042.028C129.388,20.373,129.36,20.709,129.318,21.115Z" transform="translate(-47.042 -20.035)"/><path d="M24.692,33.985a3.561,3.561,0,0,0-1.129.208c-.193.1-.357.5-.312,3.208l.045,4.022c.029,2.6-.579,3.741-3.163,4.944-.045.03-.178-.163-.118-.207C21.321,45.21,22,44.57,22,41.423V37.4c0-2.7-.134-3.1-.312-3.208a3.653,3.653,0,0,0-1.144-.208c-.058-.015-.058-.311-.014-.311h4.172C24.75,33.673,24.765,33.97,24.692,33.985Z" transform="translate(-20 -23.504)"/><path d="M34.858,43.115a2.345,2.345,0,0,1-1.144.177c-.891,0-1.351-.045-2.583-.045-.966,0-1.679.016-2.732.029-.045,0-.045-.3.015-.311a3.381,3.381,0,0,0,1.1-.207c.179-.1.313-.506.313-3.207V37.384c0-2.7-.134-3.1-.313-3.208a3.285,3.285,0,0,0-1.1-.208c-.059-.015-.059-.311-.015-.311,1.158.015,3.1.029,4.067.029a16.959,16.959,0,0,0,2.183-.074c.074,0,.088.029.088.06-.03.519-.074,1.261-.163,2.064-.016.059-.326.043-.326-.046a1.588,1.588,0,0,0-.342-1.009,1.866,1.866,0,0,0-1.515-.445,12.531,12.531,0,0,0-1.26.029,10.431,10.431,0,0,0-.06,1.633V38h1.218c1.41,0,1.441-.4,1.53-.935.015-.06.326-.044.326,0-.014.4-.06,2.257-.074,2.673,0,.045-.327.045-.327-.016a1.935,1.935,0,0,0-.207-.92c-.134-.133-.208-.222-1.262-.222h-1.2v.993a8.571,8.571,0,0,0,.223,2.925c.134.134.594.194,1.47.194a1.819,1.819,0,0,0,1.53-.5A2.944,2.944,0,0,0,34.785,41c.014-.074.326-.016.326.059C35.034,42,34.872,43.084,34.858,43.115Z" transform="translate(-22.137 -23.488)"/><path d="M42.769,43.4a3.786,3.786,0,0,1-2.375-.742,14.542,14.542,0,0,1-.088-2.331c0-.074.326-.089.341,0a4,4,0,0,0,.518,1.633,2.171,2.171,0,0,0,1.915.935,1.539,1.539,0,0,0,1.589-1.753c0-2.345-3.9-2.464-3.9-5.167a2.649,2.649,0,0,1,2.7-2.628c1.127,0,1.291.357,1.929.282.06-.015.089.016.089.045,0,.519.029,1.395,0,2.2-.016.045-.327.045-.341-.03a2.525,2.525,0,0,0-.461-1.44,1.737,1.737,0,0,0-1.381-.579,1.494,1.494,0,0,0-1.41,1.617c0,2.005,3.963,2.495,3.963,5.064A2.955,2.955,0,0,1,42.769,43.4Z" transform="translate(-25.179 -23.422)"/><path d="M59.106,34.237c-.118.1-.252.46-.252,3.163v2.493a3.57,3.57,0,0,1-3.9,3.489,3.436,3.436,0,0,1-3.726-3.459V37.4c0-2.7-.134-3.1-.312-3.208a2.818,2.818,0,0,0-1.025-.208c-.06-.015-.06-.311-.015-.311H53.88c.045,0,.045.3-.016.311a3.3,3.3,0,0,0-1.084.208c-.178.1-.311.5-.311,3.208v2.255a2.811,2.811,0,0,0,2.984,2.985,2.652,2.652,0,0,0,2.731-2.82V37.4c0-2.7-.149-3.059-.267-3.163a2.182,2.182,0,0,0-1.1-.252c-.06-.015-.045-.311,0-.311h3.326c.045,0,.075.3,0,.311C59.567,34.044,59.27,34.087,59.106,34.237Z" transform="translate(-27.619 -23.504)"/><path d="M68.092,43.4a3.789,3.789,0,0,1-2.376-.742,14.764,14.764,0,0,1-.089-2.331c0-.074.327-.089.343,0a3.99,3.99,0,0,0,.518,1.633A2.173,2.173,0,0,0,68.4,42.9a1.539,1.539,0,0,0,1.588-1.753c0-2.345-3.9-2.464-3.9-5.167a2.649,2.649,0,0,1,2.7-2.628c1.127,0,1.291.357,1.93.282.058-.015.089.016.089.045,0,.519.029,1.395,0,2.2-.015.045-.327.045-.342-.03a2.524,2.524,0,0,0-.459-1.44,1.74,1.74,0,0,0-1.381-.579,1.494,1.494,0,0,0-1.41,1.617c0,2.005,3.963,2.495,3.963,5.064A2.955,2.955,0,0,1,68.092,43.4Z" transform="translate(-31.645 -23.422)"/><path d="M89.841,42.732a5.038,5.038,0,0,1-2.954.7,4.864,4.864,0,0,1-5.167-4.9A5.019,5.019,0,0,1,86.857,33.4c1.679,0,2.509.564,3.044.445a.066.066,0,0,1,.089.06c.016.519.06,1.588.045,2.39-.015.06-.327.06-.342-.029a2.489,2.489,0,0,0-.609-1.5,3.5,3.5,0,0,0-2.375-.847c-2.583,0-3.592,2.078-3.592,4.187,0,2.419,1.529,4.75,3.8,4.75a2.728,2.728,0,0,0,2.317-.935,3.679,3.679,0,0,0,.623-1.278c.015-.089.327-.014.327.045A17.5,17.5,0,0,1,89.841,42.732Z" transform="translate(-35.759 -23.433)"/><path d="M102.582,43.292c-.045,0-.045-.311.014-.311a3.262,3.262,0,0,0,1.026-.207c.177-.1.311-.506.311-3.222v-.906H98.47v.906c0,2.717.133,3.118.326,3.222a3.018,3.018,0,0,0,1.01.207c.059,0,.059.311.014.311H95.886c-.044,0-.044-.311.016-.311a3.124,3.124,0,0,0,1.023-.207c.178-.1.313-.506.313-3.222V37.4c0-2.717-.135-3.1-.313-3.208a2.726,2.726,0,0,0-1.023-.208c-.06-.015-.06-.311-.016-.311H99.82c.045,0,.045.3-.014.311a2.651,2.651,0,0,0-1.01.208c-.194.1-.326.49-.326,3.208v.7h5.464v-.7c0-2.717-.134-3.1-.311-3.208a2.833,2.833,0,0,0-1.026-.208c-.059-.015-.059-.311-.014-.311h3.934c.045,0,.045.3-.016.311a2.839,2.839,0,0,0-1.025.208c-.177.1-.311.49-.311,3.208v2.152c0,2.717.134,3.118.311,3.222a3.249,3.249,0,0,0,1.025.207c.06,0,.06.311.016.311Z" transform="translate(-39.368 -23.504)"/><path d="M121.971,43.292a4.354,4.354,0,0,1-2.568-.533,11.189,11.189,0,0,1-2.762-3.563c-.727.015-1.023.015-1.588-.015v.386c0,2.7.134,3.1.311,3.207a5.263,5.263,0,0,0,1.291.207c.059.015.059.311.015.311h-4.2c-.045,0-.06-.3.015-.311a2.689,2.689,0,0,0,1.009-.207c.194-.1.312-.506.312-3.207V37.4c0-2.7-.118-3.1-.312-3.208a2.624,2.624,0,0,0-1.009-.208c-.074-.015-.059-.311-.015-.311.654,0,1.41.029,1.96.029s1.142-.029,1.811-.029c2.212,0,3.326,1.232,3.326,2.361a3.316,3.316,0,0,1-1.782,2.776c2.108,3.147,3.3,4.158,4.292,4.158a2.393,2.393,0,0,0,1.114-.193c.177-.1.311-.506.311-3.207V37.4c0-2.7-.134-3.1-.311-3.208a3.664,3.664,0,0,0-1.145-.208c-.058-.015-.058-.311-.015-.311H126.2c.059,0,.059.3-.016.311a3.55,3.55,0,0,0-1.128.208c-.193.1-.312.5-.312,3.208v2.167c0,2.7.119,3.1.312,3.207a3.591,3.591,0,0,0,1.128.207c.074.015.074.311.016.311Zm-5.761-9.114a2.5,2.5,0,0,0-.994.134,13.071,13.071,0,0,0-.163,3.088c0,.889.029,1.052.088,1.113a2.487,2.487,0,0,0,1.232.164c1.218,0,1.782-.92,1.782-2.078C118.156,35.173,117.637,34.178,116.21,34.178Z" transform="translate(-43.6 -23.504)"/><path d="M135.731,43.4a3.789,3.789,0,0,1-2.376-.742,14.889,14.889,0,0,1-.089-2.331c0-.074.328-.089.343,0a3.99,3.99,0,0,0,.518,1.633,2.17,2.17,0,0,0,1.915.935,1.539,1.539,0,0,0,1.589-1.753c0-2.345-3.9-2.464-3.9-5.167a2.649,2.649,0,0,1,2.7-2.628c1.13,0,1.291.357,1.931.282.06-.015.089.016.089.045,0,.519.03,1.395,0,2.2-.015.045-.326.045-.34-.03a2.525,2.525,0,0,0-.461-1.44,1.736,1.736,0,0,0-1.381-.579,1.5,1.5,0,0,0-1.412,1.617c0,2.005,3.965,2.495,3.965,5.064A2.955,2.955,0,0,1,135.731,43.4Z" transform="translate(-48.915 -23.422)"/><path d="M151.007,36.014c-.014.074-.325.074-.325-.029a2.417,2.417,0,0,0-.3-1.351c-.3-.313-.9-.564-2.211-.564a3.829,3.829,0,0,0-.669.029,13.816,13.816,0,0,0-.059,1.8v3.623c0,2.7.133,3.1.313,3.207a3.614,3.614,0,0,0,1.142.207c.06.015.06.311.016.311h-4.187c-.044,0-.044-.3.031-.311a3.634,3.634,0,0,0,1.128-.207c.193-.105.311-.506.311-3.207V35.9a13.465,13.465,0,0,0-.06-1.8,4.82,4.82,0,0,0-.741-.029c-1.4,0-1.871.148-2.212.564a3.135,3.135,0,0,0-.49,1.381c-.015.1-.328.06-.328-.029.091-.772.179-1.9.224-2.405,0-.045.074-.074.177-.06a27.344,27.344,0,0,0,4.053.164c3.548,0,3.875-.1,4.143-.193.088-.03.163.015.163.06C151.127,34.114,151.1,35.227,151.007,36.014Z" transform="translate(-51.243 -23.455)"/><path d="M30.716,58.489a2.485,2.485,0,0,1-2.588-2.448,2.644,2.644,0,0,1,2.685-2.561,2.487,2.487,0,0,1,2.59,2.449A2.645,2.645,0,0,1,30.716,58.489Zm-.057-4.7c-1.371,0-1.762,1.12-1.762,2.043a2.132,2.132,0,0,0,1.973,2.35c1.371,0,1.763-1.119,1.763-2.043A2.132,2.132,0,0,0,30.659,53.788Z" transform="translate(-22.075 -28.561)"/><path d="M39.68,54.575c0,.029-.2.029-.2-.028a.641.641,0,0,0-.153-.461,1.275,1.275,0,0,0-.952-.253,5.713,5.713,0,0,0-.672.03,7.623,7.623,0,0,0-.028.839v1.105h.545c.742,0,.84-.084.882-.351.014-.028.2-.013.2,0-.015.211-.042.966-.042,1.175,0,.015-.2.015-.2-.013a.5.5,0,0,0-.111-.363c-.071-.07-.182-.112-.742-.112h-.532v.406c0,1.372.07,1.538.168,1.581a2.075,2.075,0,0,0,.671.125c.028.015.028.182.015.182H36.294c-.028,0-.028-.168.014-.182a1.309,1.309,0,0,0,.531-.125c.085-.043.154-.209.154-1.581V55.456c0-1.37-.069-1.581-.154-1.623a1.309,1.309,0,0,0-.531-.125c-.042-.015-.042-.139-.014-.139.6.013,1.594.013,2.084.013.658,0,1.1-.013,1.343-.028.028-.015.042.016.042.028C39.748,53.834,39.721,54.169,39.68,54.575Z" transform="translate(-24.155 -28.579)"/><path d="M48.525,58.318c-.056.084-.14.14-.336.14-.476,0-1.036-.028-1.679-.028-.5,0-.867,0-1.428.013-.014,0-.014-.168.014-.182a1.239,1.239,0,0,0,.532-.125c.1-.043.155-.209.155-1.581V55.463c0-1.37-.057-1.539-.155-1.581a1.439,1.439,0,0,0-.532-.14c-.028,0-.028-.167-.014-.167h2.1c.014,0,.014.167-.013.167a1.434,1.434,0,0,0-.532.14c-.1.042-.154.211-.154,1.581v1.092A3.147,3.147,0,0,0,46.65,58c.083.083.2.14.644.14a1.131,1.131,0,0,0,.909-.323,1.972,1.972,0,0,0,.351-.755c.014-.042.2-.014.2.028A6.666,6.666,0,0,1,48.525,58.318Z" transform="translate(-26.402 -28.585)"/><path d="M53.519,58.433c-.014,0-.027-.168,0-.182.238-.013.392-.07.392-.182a6.966,6.966,0,0,0-.546-1.442H51.827a5.5,5.5,0,0,0-.448,1.4c0,.127.111.2.433.224.042.015.028.182,0,.182H50.189c-.027,0-.027-.168,0-.182a.841.841,0,0,0,.49-.14c.154-.111.335-.391.769-1.567l.419-1.092c.238-.63.49-1.288.687-1.875.014-.054.321-.054.35,0,.223.658.433,1.19.7,1.875l.435,1.092c.588,1.413.672,1.5.811,1.581a.923.923,0,0,0,.476.125c.028.015.016.182,0,.182ZM52.6,54.572l-.63,1.708H53.24Z" transform="translate(-27.703 -28.575)"/><path d="M61.2,54.641c0,.015-.182.015-.182-.015a.8.8,0,0,0-.14-.5c-.154-.14-.364-.252-1.2-.252-.168,0-.265.013-.336.013a4.52,4.52,0,0,0-.042.853V56.53c0,1.372.071,1.538.168,1.581a1.715,1.715,0,0,0,.6.125c.027.015.027.182,0,.182H57.857c-.028,0-.028-.168,0-.182a1.717,1.717,0,0,0,.6-.125c.1-.043.154-.209.154-1.581V54.738a5.207,5.207,0,0,0-.028-.853c-.069,0-.209-.013-.378-.013-.8,0-1.021.083-1.2.252a1.036,1.036,0,0,0-.238.518c0,.028-.181,0-.181-.028.042-.378.083-.826.11-1.092,0-.013.016-.028.042-.028a17.467,17.467,0,0,0,2.224.084,9,9,0,0,0,2.268-.1c.028,0,.042.015.042.03A8.777,8.777,0,0,1,61.2,54.641Z" transform="translate(-29.341 -28.56)"/><path d="M68.17,54.641c0,.015-.182.015-.182-.015a.8.8,0,0,0-.14-.5c-.154-.14-.365-.252-1.2-.252-.168,0-.266.013-.336.013a4.591,4.591,0,0,0-.042.853V56.53c0,1.372.071,1.538.169,1.581a1.714,1.714,0,0,0,.6.125c.028.015.028.182,0,.182H64.826c-.028,0-.028-.168,0-.182a1.722,1.722,0,0,0,.6-.125c.1-.043.153-.209.153-1.581V54.738a5.493,5.493,0,0,0-.027-.853c-.071,0-.21-.013-.378-.013-.8,0-1.021.083-1.2.252a1.034,1.034,0,0,0-.237.518c0,.028-.182,0-.182-.028.043-.378.083-.826.112-1.092,0-.013.014-.028.042-.028a17.474,17.474,0,0,0,2.225.084,8.984,8.984,0,0,0,2.266-.1c.028,0,.042.015.042.03A9.033,9.033,0,0,1,68.17,54.641Z" transform="translate(-31.12 -28.56)"/><path d="M74.125,58.311c-.055.084-.1.14-.294.14-.476,0-1.036-.028-1.679-.028-.5,0-.812,0-1.357.013-.029,0-.029-.168,0-.182a1.184,1.184,0,0,0,.531-.125c.1-.043.169-.209.169-1.581V55.456c0-1.37-.071-1.539-.169-1.581a1.363,1.363,0,0,0-.531-.14c-.029,0-.029-.167,0-.167.6.013,1.552.013,2.057.013.643,0,1.007-.013,1.23-.028.042-.015.057.016.057.028-.029.252-.042.617-.084,1.008-.015.042-.2.028-.2-.015a.759.759,0,0,0-.153-.5c-.127-.127-.351-.2-.9-.2-.308,0-.518.015-.6.015a4.689,4.689,0,0,0-.028.812V55.75h.573c.742,0,.839-.168.882-.433.015-.028.2-.028.2,0-.015.211-.042,1.105-.042,1.3,0,.028-.2.028-.2,0a.615.615,0,0,0-.11-.406c-.07-.056-.183-.14-.742-.14h-.56v.476a3.165,3.165,0,0,0,.168,1.442c.1.083.2.14.659.14a1.15,1.15,0,0,0,.882-.266,1,1,0,0,0,.252-.518c.013-.042.153,0,.14.028A3.9,3.9,0,0,1,74.125,58.311Z" transform="translate(-32.964 -28.579)"/><path d="M81.688,58.43a1.967,1.967,0,0,1-1.161-.266A5.081,5.081,0,0,1,79.085,56.4a6.9,6.9,0,0,1-.8-.015v.169c0,1.372.071,1.538.169,1.581a2.076,2.076,0,0,0,.672.125c.028.015.028.182.013.182H76.9c-.028,0-.028-.168.015-.182a1.305,1.305,0,0,0,.531-.125c.084-.043.154-.209.154-1.581V55.463c0-1.37-.07-1.539-.154-1.581a1.537,1.537,0,0,0-.531-.14c-.042,0-.042-.167-.015-.167.349,0,.757.013,1.05.013s.586-.013.937-.013c1.162,0,1.819.614,1.819,1.229a1.751,1.751,0,0,1-.993,1.413c1.036,1.5,1.594,2,2.2,2h.224c.028-.013.055.17.042.17A2.823,2.823,0,0,1,81.688,58.43Zm-2.813-4.576c-.264,0-.433.042-.461.1a4.579,4.579,0,0,0-.127,1.511c0,.448.029.5.071.547a.925.925,0,0,0,.6.125,1.013,1.013,0,0,0,.966-1.078C79.925,54.387,79.617,53.854,78.875,53.854Z" transform="translate(-34.524 -28.585)"/><path d="M86.266,56.765c-.029.042-.084.056-.182.056l-.938.015c-.9,0-1.078.125-1.161.322-.015.028-.182-.014-.182-.042.013-.169.041-.518.07-.672l1.148-.013c.894,0,1.036-.141,1.146-.323.015-.028.169.015.169.029A4.806,4.806,0,0,1,86.266,56.765Z" transform="translate(-36.291 -29.229)"/><path d="M92.759,57.7a2.7,2.7,0,0,1-2.1.74c-.351,0-.9-.013-1.19-.013s-.7.013-1.036.013c-.028,0-.028-.168,0-.182a1.253,1.253,0,0,0,.532-.125c.1-.043.168-.209.168-1.581V55.463c0-1.37-.07-1.539-.168-1.581a1.46,1.46,0,0,0-.532-.14c-.028,0-.028-.167,0-.167.336,0,.757.013,1.036.013s1.008-.013,1.344-.013A2.379,2.379,0,0,1,92.759,57.7Zm-2.169-3.848c-.476,0-.6.07-.658.14a4.405,4.405,0,0,0-.113,1.442v1.12a2.976,2.976,0,0,0,.169,1.413c.14.139.252.181.658.181,1.511,0,2.156-.658,2.156-2.069A2.117,2.117,0,0,0,90.591,53.854Z" transform="translate(-37.468 -28.585)"/><path d="M98.792,58.433c-.013,0-.027-.168,0-.182.238-.013.393-.07.393-.182a6.991,6.991,0,0,0-.547-1.442H97.1a5.507,5.507,0,0,0-.449,1.4c0,.127.112.2.436.224.041.015.028.182,0,.182H95.463c-.03,0-.03-.168,0-.182a.836.836,0,0,0,.489-.14c.154-.111.336-.391.771-1.567l.419-1.092c.238-.63.49-1.288.684-1.875.016-.054.323-.054.351,0,.223.658.433,1.19.7,1.875l.434,1.092c.587,1.413.672,1.5.812,1.581a.918.918,0,0,0,.475.125c.028.015.016.182,0,.182Zm-.923-3.861-.63,1.708h1.275Z" transform="translate(-39.262 -28.575)"/><path d="M106.011,53.823c-.2.1-.349.306-.742.936l-.419.672c-.181.279-.363.588-.532.867v.253c0,1.372.069,1.538.153,1.581a1.719,1.719,0,0,0,.6.125c.027.015.027.182,0,.182h-2.211c-.03,0-.03-.168,0-.182a1.706,1.706,0,0,0,.6-.125c.1-.043.154-.209.154-1.581v-.224c-.167-.294-.336-.574-.544-.9l-.433-.672c-.49-.755-.617-.894-.757-.936a1.463,1.463,0,0,0-.5-.085c-.028,0-.028-.182,0-.182h1.859c.03,0,.042.182,0,.182a.739.739,0,0,0-.322.07c-.054.028-.027.14.461.882l.757,1.245.784-1.23c.407-.644.476-.812.364-.881a.813.813,0,0,0-.378-.085c-.028,0-.016-.182,0-.182h1.638c.027,0,.027.182,0,.182A2.043,2.043,0,0,0,106.011,53.823Z" transform="translate(-40.773 -28.58)"/><path d="M113.039,58.479a1.659,1.659,0,0,1-1.245-.447,3.964,3.964,0,0,1-.015-1.078c0-.028.182-.042.182,0a1.646,1.646,0,0,0,.252.727,1.148,1.148,0,0,0,.965.5.792.792,0,0,0,.841-.882c0-1.1-2.058-1.3-2.058-2.544a1.407,1.407,0,0,1,1.441-1.317c.588,0,.742.211,1.023.141a.039.039,0,0,1,.055.027c-.015.264,0,.643-.015,1.049,0,.028-.182.028-.2,0a1.187,1.187,0,0,0-.252-.658,1.036,1.036,0,0,0-.687-.266.72.72,0,0,0-.755.757c0,.937,2.125,1.3,2.125,2.532A1.559,1.559,0,0,1,113.039,58.479Z" transform="translate(-43.426 -28.551)"/><path d="M119.34,58.433c-.015,0-.028-.168,0-.182.236-.013.39-.07.39-.182a6.813,6.813,0,0,0-.545-1.442h-1.538a5.471,5.471,0,0,0-.449,1.4c0,.127.112.2.433.224.042.015.028.182,0,.182h-1.623c-.028,0-.028-.168,0-.182a.835.835,0,0,0,.489-.14c.154-.111.336-.391.77-1.567l.42-1.092c.236-.63.488-1.288.685-1.875.014-.054.322-.054.349,0,.223.658.435,1.19.7,1.875l.433,1.092c.588,1.413.672,1.5.812,1.581a.921.921,0,0,0,.476.125c.027.015.013.182,0,.182Zm-.924-3.861-.63,1.708h1.274Z" transform="translate(-44.508 -28.575)"/><path d="M123.058,58.443c-.014,0-.014-.168.014-.182a1.526,1.526,0,0,0,.588-.125c.1-.043.169-.209.169-1.581V55.463c0-1.37-.07-1.539-.169-1.581a1.779,1.779,0,0,0-.588-.14c-.028,0-.028-.167-.014-.167h2.224c.016,0,.016.167-.013.167a1.754,1.754,0,0,0-.588.14c-.1.042-.17.211-.17,1.581v1.092c0,1.372.071,1.538.17,1.581a1.522,1.522,0,0,0,.588.125c.028.015.028.182.013.182Z" transform="translate(-46.311 -28.585)"/><path d="M132.125,53.883c-.072.055-.154.2-.141,1.567v1.092c0,.63,0,1.3.042,1.888,0,.042-.237.057-.279.015L128.04,54.7l.028,1.847c.013,1.258.112,1.5.224,1.581a1.207,1.207,0,0,0,.545.125c.042,0,.028.182,0,.182h-1.874c-.029,0-.029-.168,0-.182a1.169,1.169,0,0,0,.573-.14c.071-.055.154-.2.127-1.567l-.015-1.092c0-.63,0-1.3-.042-1.887,0-.042.265-.057.281-.016l3.72,3.776-.028-1.874c-.013-1.37-.124-1.524-.209-1.581a1.323,1.323,0,0,0-.6-.14c-.042,0-.028-.167,0-.167h1.889c.028,0,.042.167,0,.167A1.08,1.08,0,0,0,132.125,53.883Z" transform="translate(-47.305 -28.572)"/><path d="M139.8,54.641c0,.015-.182.015-.182-.015a.794.794,0,0,0-.141-.5c-.152-.14-.363-.252-1.2-.252-.168,0-.267.013-.336.013a4.59,4.59,0,0,0-.042.853V56.53c0,1.372.069,1.538.169,1.581a1.707,1.707,0,0,0,.6.125c.029.015.029.182,0,.182h-2.212c-.027,0-.027-.168,0-.182a1.719,1.719,0,0,0,.6-.125c.1-.043.153-.209.153-1.581V54.738a5.493,5.493,0,0,0-.027-.853c-.07,0-.211-.013-.378-.013-.8,0-1.022.083-1.2.252a1.037,1.037,0,0,0-.239.518c0,.028-.181,0-.181-.028.042-.378.084-.826.112-1.092,0-.013.015-.028.042-.028a17.441,17.441,0,0,0,2.224.084,9.01,9.01,0,0,0,2.268-.1c.027,0,.042.015.042.03A9.345,9.345,0,0,1,139.8,54.641Z" transform="translate(-49.408 -28.56)"/><path d="M143.377,58.479a1.666,1.666,0,0,1-1.246-.447,3.879,3.879,0,0,1-.014-1.078c0-.028.181-.042.181,0a1.655,1.655,0,0,0,.254.727,1.147,1.147,0,0,0,.964.5.791.791,0,0,0,.841-.882c0-1.1-2.058-1.3-2.058-2.544a1.408,1.408,0,0,1,1.442-1.317c.588,0,.741.211,1.02.141a.04.04,0,0,1,.057.027c-.013.264,0,.643-.013,1.049,0,.028-.183.028-.2,0a1.182,1.182,0,0,0-.252-.658,1.033,1.033,0,0,0-.686-.266.72.72,0,0,0-.755.757c0,.937,2.126,1.3,2.126,2.532A1.559,1.559,0,0,1,143.377,58.479Z" transform="translate(-51.172 -28.551)"/></g></g></svg>