<svg xmlns="http://www.w3.org/2000/svg" width="50" height="50" viewBox="0 0 50 50"><g transform="translate(-620 -787)"><g transform="translate(630.417 787)"><path d="M639.583,822.417c-5.131,0-9.688-4.146-11.581-10.421-1.721-.1-3-2.3-3-5.2a8.706,8.706,0,0,1,.317-2.358,14.025,14.025,0,0,1-.317-2.85,14.583,14.583,0,1,1,29.167,0,14.021,14.021,0,0,1-.317,2.85,8.7,8.7,0,0,1,.317,2.358c0,2.9-1.281,5.106-3,5.2C649.271,818.271,644.715,822.417,639.583,822.417Zm-10.848-12.675a.983.983,0,0,1,.365.069,1.048,1.048,0,0,1,.652.692c1.456,5.881,5.408,9.831,9.831,9.831s8.373-3.95,9.831-9.831a1.043,1.043,0,0,1,1.563-.633c.371.079,1.106-1.054,1.106-3.077a6.318,6.318,0,0,0-.3-1.981,1.035,1.035,0,0,1-.027-.552,12.5,12.5,0,1,0-24.35,0,1.036,1.036,0,0,1-.027.552,6.318,6.318,0,0,0-.3,1.981c0,2.017.783,3.125,1.042,3.125A1.162,1.162,0,0,1,628.736,809.742Z" transform="translate(-625 -787)"/><g transform="translate(0.351 6.25)"><path d="M626.209,802.273a1.042,1.042,0,0,1-.385-2.01c.075-.027,7.327-3,7.327-9.221a1.042,1.042,0,1,1,2.083,0c.315,1.371,8.779,9.148,17.358,9.148a1.042,1.042,0,1,1,0,2.083c-7.044,0-14.525-4.794-17.775-8.354-1.685,5.627-7.921,8.16-8.225,8.281A1.038,1.038,0,0,1,626.209,802.273Z" transform="translate(-625.169 -790)"/></g><g transform="translate(8.333 18.75)"><path d="M632.125,798.084h-2.083a1.042,1.042,0,1,1,0-2.083h2.083a1.042,1.042,0,1,1,0,2.083Z" transform="translate(-629 -796)"/></g><g transform="translate(16.667 18.75)"><path d="M636.125,798.084h-2.083a1.042,1.042,0,1,1,0-2.083h2.083a1.042,1.042,0,1,1,0,2.083Z" transform="translate(-633 -796)"/></g></g><g transform="translate(626.25 800.542)"><path d="M634.461,812.25c-.044,0-.085,0-.129-.006-.883-.109-8.723-1.119-11.027-3.423a1.045,1.045,0,0,1,0-1.475c1.992-1.992,3.863-9.44,3.863-12.8a1.042,1.042,0,1,1,2.083,0c0,3.1-1.5,10.069-3.712,13.342,2.015,1.1,6.392,1.967,9.046,2.289a1.042,1.042,0,0,1-.123,2.077Z" transform="translate(-623 -793.5)"/></g><g transform="translate(651.251 800.542)"><path d="M636.039,812.25a1.043,1.043,0,0,1-.125-2.077c2.656-.323,7.033-1.185,9.048-2.289-2.217-3.273-3.713-10.24-3.713-13.342a1.042,1.042,0,1,1,2.083,0c0,3.364,1.869,10.813,3.86,12.8a1.041,1.041,0,0,1,0,1.475c-2.3,2.3-10.142,3.315-11.027,3.423C636.125,812.248,636.081,812.25,636.039,812.25Z" transform="translate(-635 -793.5)"/></g><g transform="translate(620 820.334)"><path d="M645,819.666H621.042a1.039,1.039,0,0,1-1.01-1.3l1.619-6.473a5.209,5.209,0,0,1,2.725-3.4l10.783-5.392a1.043,1.043,0,0,1,1.373,1.448l-3.485,6.1,2.831.708a1.034,1.034,0,0,1,.325.144l9.375,6.25a1.042,1.042,0,0,1-.577,1.908Zm-22.623-2.083h19.183l-6.362-4.242-3.992-1a1.043,1.043,0,0,1-.654-1.527l2.46-4.306-7.706,3.856a3.106,3.106,0,0,0-1.633,2.038Z" transform="translate(-620 -803)"/></g><g transform="translate(643.958 820.334)"><path d="M656.5,819.666H632.542a1.041,1.041,0,0,1-.577-1.908l9.375-6.25a1.013,1.013,0,0,1,.325-.144l2.831-.708-3.485-6.1a1.043,1.043,0,0,1,1.373-1.448l10.783,5.392a5.209,5.209,0,0,1,2.725,3.4l1.619,6.473a1.042,1.042,0,0,1-1.01,1.3Zm-20.519-2.083h19.183l-1.3-5.179a3.106,3.106,0,0,0-1.633-2.038l-7.706-3.856,2.46,4.306a1.043,1.043,0,0,1-.654,1.527l-3.991,1Z" transform="translate(-631.5 -803)"/></g><g transform="translate(634.583 820.332)"><path d="M637.417,819.667a1.046,1.046,0,0,1-.877-.477l-9.375-14.583a1.043,1.043,0,0,1,1.754-1.127l8.5,13.219,8.5-13.219a1.043,1.043,0,0,1,1.754,1.127l-9.375,14.583A1.046,1.046,0,0,1,637.417,819.667Z" transform="translate(-627 -803)"/></g><g transform="translate(642.917 814.083)"><ellipse cx="3.125" cy="2.083" rx="3.125" ry="2.083"/></g><g transform="translate(647.084 809.917)"><path d="M634.042,805.292a1.042,1.042,0,1,1,0-2.083c2.3,0,8.333-1.281,8.333-4.167a1.042,1.042,0,1,1,2.083,0C644.458,803.811,636.823,805.292,634.042,805.292Z" transform="translate(-633 -798)"/></g></g></svg>