<svg xmlns="http://www.w3.org/2000/svg" width="150" height="36.351" viewBox="0 0 150 36.351"><g transform="translate(-0.97)"><g transform="translate(0.97)"><path d="M.97,65.344V46.854H12.909v1.9H3.162v6.366h8.426v1.9H3.162v6.419h9.747v1.9Zm27.361,0L18.8,50.843v14.5H16.6V46.854h2.06L28.2,61.329V46.854h2.192v18.49ZM48.666,53.378v5.415c0,4.226-2.721,6.551-7.185,6.551h-6.6V46.854h6.656C45.945,46.854,48.666,49.179,48.666,53.378Zm-2.192,5.415V53.378c0-2.958-1.849-4.622-4.939-4.622H37.07V63.442h4.411C44.624,63.442,46.473,61.751,46.473,58.793Zm6.547,6.551V46.854H64.959v1.9H55.213v6.366h8.426v1.9H55.213v6.419h9.747v1.9Zm23.293-18.49,6.815,18.49H80.777l-1.743-4.754h-8.32L68.97,65.344H66.8l6.841-18.49Zm-1.453,2.324-3.566,9.509h7.132ZM89.173,65.344l-6.841-18.49h2.377l5.811,15.8,5.837-15.8h2.166l-6.815,18.49Zm23.848-6.366V53.22c0-3.011-1.849-4.728-4.939-4.728-3.143,0-4.992,1.717-4.992,4.728v5.758c0,3.011,1.849,4.728,4.939,4.728C111.172,63.706,113.021,61.989,113.021,58.978Zm2.192-5.758v5.758c0,4.253-2.721,6.63-7.185,6.63-4.411,0-7.132-2.377-7.132-6.63V53.22c0-4.279,2.721-6.63,7.185-6.63C112.493,46.59,115.213,48.941,115.213,53.22Zm15.765-6.366h2.166V59.216c0,4.121-2.615,6.392-6.894,6.392-4.253,0-6.868-2.272-6.868-6.392V46.854h2.166V59.216c0,2.853,1.77,4.49,4.7,4.49,2.958,0,4.728-1.638,4.728-4.49Zm6.6,18.49V46.854h7.343c3.592,0,5.917,1.77,5.917,5.732,0,2.985-1.294,4.728-3.46,5.415l3.592,7.343h-2.536l-3.3-7h-5.362v7Zm2.192-16.588v7.686h5.1c2.272,0,3.724-1.136,3.724-3.856,0-2.694-1.479-3.83-3.724-3.83Z" transform="translate(-0.97 -29.257)" fill="#fff" fill-rule="evenodd"/><path d="M14.56,13.039a.52.52,0,0,1-.52.52H1.52a.52.52,0,0,1-.52-.52V.52A.521.521,0,0,1,1.52,0H14.039a.521.521,0,0,1,.52.52V13.039" transform="translate(-0.989)" fill="#84bf41" fill-rule="evenodd"/><path d="M62.507,13.039a.52.52,0,0,1-.52.52H49.467a.52.52,0,0,1-.52-.52V.52a.521.521,0,0,1,.52-.52H61.986a.521.521,0,0,1,.52.52V13.039" transform="translate(-31.098)" fill="#a6cd73" fill-rule="evenodd"/><path d="M110.454,13.039a.52.52,0,0,1-.52.52H97.414a.52.52,0,0,1-.52-.52V.52a.521.521,0,0,1,.52-.52h12.519a.521.521,0,0,1,.52.52V13.039" transform="translate(-61.208)" fill="#d9e8ba" fill-rule="evenodd"/></g></g></svg>