<svg xmlns="http://www.w3.org/2000/svg" width="50" height="31.25" viewBox="0 0 50 31.25"><g transform="translate(-329 -3764)"><g transform="translate(333.167 3784.833)"><path d="M336.208,3784.417a5.208,5.208,0,1,1,5.208-5.208A5.214,5.214,0,0,1,336.208,3784.417Zm0-8.333a3.125,3.125,0,1,0,3.125,3.125A3.129,3.129,0,0,0,336.208,3776.083Z" transform="translate(-331 -3774)"/></g><g transform="translate(364.417 3784.833)"><path d="M351.208,3784.417a5.208,5.208,0,1,1,5.208-5.208A5.214,5.214,0,0,1,351.208,3784.417Zm0-8.333a3.125,3.125,0,1,0,3.125,3.125A3.129,3.129,0,0,0,351.208,3776.083Z" transform="translate(-346 -3774)"/></g><g transform="translate(358.167 3780.667)"><path d="M346.125,3774.083h-2.083a1.042,1.042,0,0,1,0-2.083h2.083a1.042,1.042,0,0,1,0,2.083Z" transform="translate(-343 -3772)"/></g><g transform="translate(329 3764)"><path d="M373.792,3791.083a1.042,1.042,0,1,1,0-2.083,3.129,3.129,0,0,0,3.125-3.125v-5.665a1.04,1.04,0,0,0-.79-1.01,10.687,10.687,0,0,1-4.958-2.809L361.775,3767a3.1,3.1,0,0,0-2.21-.917H334.208a3.129,3.129,0,0,0-3.125,3.125v16.667a3.129,3.129,0,0,0,3.125,3.125,1.042,1.042,0,1,1,0,2.083,5.214,5.214,0,0,1-5.208-5.208v-16.667a5.214,5.214,0,0,1,5.208-5.208h25.356a5.177,5.177,0,0,1,3.683,1.525l9.394,9.394a8.575,8.575,0,0,0,3.992,2.258A3.125,3.125,0,0,1,379,3780.21v5.665A5.214,5.214,0,0,1,373.792,3791.083Z" transform="translate(-329 -3764)"/></g><g transform="translate(341.5 3789)"><path d="M358.958,3778.083H336.042a1.042,1.042,0,0,1,0-2.083h22.917a1.042,1.042,0,0,1,0,2.083Z" transform="translate(-335 -3776)"/></g><g transform="translate(354 3768.167)"><path d="M354.542,3776.417h-12.5a1.042,1.042,0,0,1-1.042-1.042v-8.333a1.042,1.042,0,0,1,2.083,0v7.292h11.458a1.042,1.042,0,1,1,0,2.083Z" transform="translate(-341 -3766)"/></g><g transform="translate(335.25 3770.25)"><path d="M345.542,3769.083h-12.5a1.042,1.042,0,0,1,0-2.083h12.5a1.042,1.042,0,0,1,0,2.083Z" transform="translate(-332 -3767)"/></g><g transform="translate(335.25 3776.5)"><path d="M345.542,3772.083h-12.5a1.042,1.042,0,0,1,0-2.083h12.5a1.042,1.042,0,0,1,0,2.083Z" transform="translate(-332 -3770)"/></g></g></svg>